<?xml version="1.0" standalone="no"?>
<!DOCTYPE svg PUBLIC "-//W3C//DTD SVG 20010904//EN"
 "http://www.w3.org/TR/2001/REC-SVG-20010904/DTD/svg10.dtd">
<svg version="1.0" xmlns="http://www.w3.org/2000/svg"
 width="512.000000pt" height="512.000000pt" viewBox="0 0 512.000000 512.000000"
 preserveAspectRatio="xMidYMid meet">
<metadata>
Created by potrace 1.13, written by Peter Selinger 2001-2015
</metadata>
<g transform="translate(0.000000,512.000000) scale(0.100000,-0.100000)"
fill="#000000" stroke="none">
<path d="M2270 5049 c-566 -69 -1080 -318 -1480 -719 -210 -209 -355 -413
-486 -685 -110 -226 -186 -474 -226 -735 -18 -115 -18 -585 0 -700 53 -342
182 -699 352 -970 199 -320 490 -611 810 -810 271 -170 628 -299 970 -352 115
-18 585 -18 700 0 342 53 699 182 970 352 320 199 611 490 810 810 170 271
299 628 352 970 18 115 18 585 0 700 -40 261 -116 509 -226 735 -131 272 -276
476 -486 685 -314 315 -698 537 -1123 650 -222 59 -328 72 -607 76 -140 1
-289 -2 -330 -7z m589 -285 c800 -102 1488 -644 1785 -1406 166 -423 193 -912
77 -1361 -178 -685 -683 -1249 -1353 -1511 -423 -166 -912 -193 -1361 -77
-685 178 -1250 684 -1511 1353 -166 423 -193 912 -77 1361 114 437 377 853
723 1139 488 405 1092 581 1717 502z"/>
<path d="M866 3734 l-26 -27 0 -1147 0 -1147 26 -27 27 -26 1672 0 1672 0 27
26 26 27 0 1147 0 1147 -26 27 -27 26 -1672 0 -1672 0 -27 -26z m3054 -249
c-14 -7 -325 -186 -692 -398 l-668 -385 -667 385 c-368 212 -679 391 -693 398
-21 12 180 14 1360 14 1180 0 1381 -2 1360 -14z m110 -805 l0 -820 -585 482
c-560 462 -584 483 -563 496 35 20 1143 660 1146 661 1 1 2 -368 2 -819z
m-2342 474 c314 -181 571 -332 570 -336 -2 -3 -263 -220 -580 -482 l-578 -476
0 816 c0 448 3 813 8 811 4 -2 265 -152 580 -333z m743 -428 c64 -36 122 -66
129 -66 7 0 68 32 136 71 l123 70 606 -498 605 -498 0 -92 0 -93 -1465 0
-1466 0 3 94 3 94 600 495 c330 272 602 493 605 492 3 -1 57 -32 121 -69z"/>
</g>
</svg>
