<?xml version="1.0" standalone="no"?>
<!DOCTYPE svg PUBLIC "-//W3C//DTD SVG 20010904//EN"
 "http://www.w3.org/TR/2001/REC-SVG-20010904/DTD/svg10.dtd">
<svg version="1.0" xmlns="http://www.w3.org/2000/svg"
 width="1920.000000pt" height="1280.000000pt" viewBox="0 0 1920.000000 1280.000000"
 preserveAspectRatio="xMidYMid meet">
<metadata>
Created by potrace 1.13, written by Peter Selinger 2001-2015
</metadata>
<g transform="translate(0.000000,1280.000000) scale(0.100000,-0.100000)"
fill="#000000" stroke="none">
<path d="M174 12765 c-18 -38 -66 -70 -91 -61 -9 4 -31 1 -49 -6 l-34 -12 0
-78 c0 -43 4 -86 9 -96 13 -24 23 -56 19 -62 -2 -3 -9 -4 -15 -2 -10 2 -13
-27 -13 -123 0 -117 1 -125 17 -116 36 21 49 37 71 84 17 37 27 47 46 47 13 0
34 8 47 18 16 12 33 16 48 13 25 -7 31 -20 35 -81 3 -34 29 -94 45 -105 8 -5
50 -7 86 -4 24 2 167 78 177 94 4 6 25 17 46 24 38 13 40 15 35 51 -5 33 -2
39 18 45 13 4 32 17 42 29 16 18 30 21 105 22 48 0 94 -4 104 -10 19 -11 65
14 75 42 8 22 52 91 74 117 9 11 16 31 14 45 -4 36 -4 36 -18 16 -12 -16 -14
-16 -26 -3 -11 13 -7 20 26 40 23 15 42 21 49 16 6 -5 14 -6 17 -2 4 3 9 -2
13 -11 8 -22 24 -20 24 3 0 12 -8 21 -22 23 -12 2 -24 10 -26 18 -5 13 -3 13
11 1 18 -14 52 -8 42 9 -3 5 -1 19 5 30 11 20 9 20 -489 20 l-500 0 -17 -35z"/>
<path d="M1813 12790 c-38 -9 -60 -29 -68 -63 -6 -21 2 -33 43 -74 34 -34 47
-54 42 -64 -12 -24 9 -78 40 -101 34 -24 37 -45 15 -88 l-16 -30 75 0 c74 0
143 19 129 35 -5 4 -2 5 5 1 7 -4 19 -2 27 4 17 14 55 4 72 -19 7 -9 10 -28 7
-42 -3 -16 1 -30 11 -39 20 -17 19 -56 -2 -70 -16 -10 -16 -11 -1 -6 9 2 19
-1 22 -9 6 -17 76 -9 91 10 7 9 44 12 122 12 103 -1 113 -2 123 -22 6 -11 21
-25 33 -30 25 -12 44 -72 29 -96 -8 -12 -6 -24 4 -44 18 -36 18 -59 0 -52 -9
4 -13 1 -11 -6 3 -7 -4 -23 -14 -36 l-18 -24 -32 22 c-33 24 -65 22 -75 -5 -4
-10 -15 -13 -36 -9 -22 4 -30 2 -30 -10 0 -8 -6 -15 -13 -15 -7 0 -18 -9 -25
-21 -7 -11 -18 -19 -25 -16 -17 5 -36 -35 -22 -48 14 -14 77 -35 103 -35 12 0
22 -4 22 -9 0 -14 64 -51 89 -51 11 0 21 5 21 11 0 5 4 8 9 4 5 -3 16 3 23 13
12 16 55 33 119 46 28 6 46 36 55 96 5 30 11 40 25 40 12 0 27 17 44 50 21 42
25 59 20 103 -4 28 -10 54 -14 57 -4 3 -13 14 -19 25 -10 17 -11 18 -12 3 0
-17 -11 -22 -39 -19 -7 2 -10 -2 -7 -8 4 -5 -3 -16 -15 -25 -20 -14 -25 -13
-48 3 -49 35 -67 176 -28 215 17 18 21 28 18 59 -1 9 3 17 8 17 6 0 11 7 11
15 0 8 6 16 13 16 41 4 72 9 84 13 9 4 12 -1 8 -17 -2 -12 1 -35 8 -51 10 -22
20 -29 45 -31 26 -2 32 1 28 12 -3 8 -2 12 3 9 5 -3 11 52 14 122 4 83 11 143
22 172 10 25 21 60 25 78 l8 32 -477 0 -477 0 -17 -30 c-21 -35 -68 -42 -89
-12 -20 29 -50 40 -85 32z"/>
<path d="M3110 12781 c-12 -24 -13 -54 -1 -66 5 -6 14 -26 20 -47 7 -20 18
-39 26 -42 8 -3 21 -20 29 -38 8 -18 23 -43 33 -56 l18 -22 35 25 c18 14 29
25 23 25 -6 0 -8 11 -5 25 3 16 -2 33 -12 44 -16 17 -16 19 0 25 13 5 16 15
11 52 -4 37 -1 47 14 57 11 7 19 17 19 24 0 10 -26 13 -100 13 -88 0 -100 -2
-110 -19z"/>
<path d="M3440 12788 c0 -6 7 -19 16 -29 14 -16 14 -22 3 -48 -9 -19 -21 -31
-33 -31 -19 0 -19 -1 2 -20 27 -25 27 -32 2 -55 -26 -23 -28 -60 -2 -47 9 5
22 7 29 5 7 -2 33 17 58 43 l45 48 21 -22 c16 -18 19 -32 15 -66 l-4 -44 36 4
c58 7 65 -3 42 -65 -11 -29 -32 -63 -47 -75 -22 -19 -27 -33 -31 -84 -3 -46 0
-68 12 -87 25 -39 19 -57 -35 -104 -46 -39 -50 -46 -43 -75 4 -17 16 -50 28
-74 15 -32 17 -45 9 -50 -7 -4 -11 -21 -9 -37 2 -17 4 -36 5 -42 0 -7 8 -13
18 -13 21 0 103 -48 103 -60 0 -5 7 -7 15 -4 8 4 15 1 15 -6 0 -7 9 -25 21
-41 24 -34 19 -78 -9 -86 -17 -4 -52 -69 -52 -96 0 -7 -5 -18 -12 -25 -9 -9
-8 -16 5 -30 17 -19 23 -52 9 -52 -4 0 -8 -9 -9 -20 -1 -12 4 -20 13 -20 9 0
14 6 11 13 -11 31 74 106 153 134 28 10 37 10 50 -2 27 -25 81 -40 90 -25 4 6
25 12 46 11 88 -2 193 -9 202 -15 5 -3 12 -22 15 -42 8 -51 22 -64 55 -53 15
5 62 11 105 15 42 3 77 10 77 15 0 5 6 9 14 9 7 0 30 18 51 41 26 29 42 39 57
36 12 -4 26 2 36 14 9 10 20 19 25 19 13 0 46 43 47 60 0 8 7 28 15 44 8 15
18 63 21 106 4 62 2 81 -11 93 -9 10 -11 18 -5 22 5 3 10 14 10 23 -1 15 -2
15 -13 1 -11 -14 -14 -14 -30 1 -16 15 -16 19 -2 30 8 7 15 9 15 5 0 -4 7 -2
15 5 8 7 12 16 9 21 -3 5 0 9 5 9 6 0 11 17 11 38 0 21 5 43 11 49 7 7 13 64
16 145 6 215 4 207 49 234 42 26 94 25 125 -2 23 -21 38 -17 49 11 5 14 14 25
20 25 5 0 10 9 10 20 0 11 3 20 8 20 4 0 7 30 7 67 0 59 -3 69 -20 74 -11 3
-19 12 -17 19 2 7 -5 21 -14 31 -20 22 -41 56 -50 82 -6 16 -51 17 -755 17
-566 0 -749 -3 -749 -12z"/>
<path d="M5797 12778 c-3 -12 -2 -29 3 -38 6 -12 2 -21 -16 -35 -13 -10 -24
-26 -24 -37 0 -20 -3 -24 -45 -72 -14 -16 -25 -38 -25 -50 0 -17 -2 -18 -10
-6 -15 24 -12 1 6 -35 8 -18 24 -35 35 -38 25 -7 99 3 99 13 0 4 8 10 18 14
24 8 53 28 72 50 14 16 20 17 39 6 18 -9 22 -9 16 0 -6 9 -2 9 14 1 17 -9 21
-9 21 3 0 8 14 20 30 28 18 7 31 21 32 33 0 11 2 25 3 30 2 6 3 15 4 22 0 7 8
10 16 7 8 -4 15 -2 15 4 0 6 -6 13 -12 15 -8 3 -6 6 5 6 9 1 17 9 17 19 0 9
10 22 22 27 11 6 25 20 29 33 l8 22 -183 0 c-180 0 -184 0 -189 -22z"/>
<path d="M16350 12775 c-5 -14 -15 -25 -22 -25 -10 0 -13 -25 -14 -91 -1 -65
-6 -94 -15 -100 -11 -7 -9 -9 6 -9 18 -1 18 -2 -4 -14 -14 -8 -26 -22 -27 -32
-2 -11 -6 -34 -9 -51 -7 -39 4 -42 58 -13 66 36 131 23 205 -41 50 -44 56 -41
52 31 -1 34 40 128 63 142 8 5 5 14 -8 28 -11 13 -15 24 -9 28 8 6 34 56 34
67 0 3 -8 5 -19 5 -26 0 -38 19 -36 55 3 40 3 39 19 26 10 -9 15 -8 20 4 5 13
-14 15 -140 15 l-144 0 -10 -25z"/>
<path d="M16732 12783 c9 -11 14 -34 12 -58 l-2 -40 74 -3 c49 -1 73 2 69 8
-9 15 6 12 26 -6 16 -14 19 -11 48 42 17 32 31 61 31 66 0 4 -61 8 -137 8
-129 0 -135 -1 -121 -17z"/>
<path d="M17161 12784 c19 -8 43 -28 53 -44 9 -17 28 -33 42 -36 22 -6 135 19
214 47 29 10 67 7 95 -8 41 -22 70 -19 111 15 21 18 40 28 42 22 6 -16 22 -12
22 5 0 13 -41 15 -307 14 -281 0 -305 -1 -272 -15z"/>
<path d="M15890 12651 c-22 -44 -45 -220 -31 -234 10 -10 130 11 151 27 28 21
60 36 75 36 8 0 15 8 15 19 0 10 9 21 20 24 11 3 20 12 20 20 0 15 -40 27 -88
27 -26 0 -92 38 -92 54 0 4 -11 21 -25 37 l-24 30 -21 -40z"/>
<path d="M1615 12541 c-3 -6 -25 -11 -49 -11 -48 0 -79 -25 -90 -74 -19 -78
53 -119 90 -51 6 11 30 31 54 44 42 24 45 24 73 8 l29 -17 -6 27 c-4 16 -15
39 -25 53 -19 26 -64 39 -76 21z"/>
<path d="M7703 12096 c-39 -9 -43 -13 -43 -41 0 -17 -4 -35 -9 -40 -18 -18
-38 -93 -30 -107 5 -7 9 -25 9 -40 0 -15 4 -30 10 -33 16 -10 -12 -44 -42 -50
-17 -4 -28 -13 -28 -24 0 -9 -16 -35 -36 -56 -20 -22 -31 -41 -25 -43 13 -4
15 -42 2 -42 -14 0 -11 -84 4 -113 15 -30 9 -67 -11 -67 -8 0 -14 6 -14 13 0
8 -3 7 -10 -3 -5 -8 -12 -11 -16 -7 -4 3 -2 13 4 20 7 8 9 42 6 93 -6 83 -22
134 -35 112 -11 -17 -177 -12 -223 7 -41 18 -57 19 -36 4 12 -9 11 -9 -5 -4
-61 22 -113 12 -145 -29 -36 -45 -73 -77 -85 -72 -7 2 -33 8 -59 11 -29 5 -46
12 -46 21 0 8 -5 14 -10 14 -16 0 -100 88 -100 104 0 19 -9 24 -67 37 -64 13
-130 17 -145 8 -6 -4 -21 -3 -31 3 -16 8 -25 4 -51 -21 l-32 -31 -24 25 c-25
27 -55 33 -63 13 -4 -10 -6 -10 -6 0 -1 6 -10 12 -20 12 -11 0 -23 9 -26 20
-8 24 -41 26 -81 5 -26 -13 -30 -13 -49 4 -16 15 -33 18 -90 15 -136 -6 -170
-10 -192 -22 -12 -6 -31 -12 -43 -12 -24 0 -40 -34 -46 -95 -9 -87 -11 -94
-41 -167 -17 -41 -66 -71 -111 -67 -63 5 -81 -14 -102 -113 -7 -32 -17 -58
-22 -58 -4 0 -8 -6 -8 -13 0 -7 -12 -24 -26 -36 -25 -22 -26 -22 -19 -2 8 25
-7 28 -26 5 -11 -14 -10 -18 5 -30 11 -7 23 -11 27 -8 4 2 11 -12 15 -33 4
-21 14 -44 23 -51 15 -11 14 -13 -1 -23 -24 -14 -23 -27 4 -31 32 -5 35 -28 4
-28 -14 0 -26 -4 -26 -10 0 -5 9 -10 21 -10 38 0 87 -35 102 -73 10 -28 37
-32 89 -13 44 16 51 16 95 1 26 -9 80 -19 119 -22 70 -5 73 -4 104 26 34 32
40 34 104 31 24 -1 36 2 32 9 -4 6 2 19 14 31 11 11 20 23 20 26 0 3 14 25 31
49 30 42 32 49 34 152 2 59 3 108 4 108 1 0 3 30 5 68 3 75 8 86 31 67 19 -16
19 -30 0 -30 -8 0 -15 -7 -15 -15 0 -8 7 -15 17 -15 9 0 13 -3 10 -6 -3 -4 -1
-16 4 -27 8 -15 8 -22 -2 -28 -12 -8 -11 -11 2 -19 9 -5 20 -21 23 -35 4 -15
11 -22 20 -19 8 3 17 1 20 -5 5 -7 13 -7 27 2 17 10 24 7 57 -30 28 -32 50
-46 94 -58 49 -14 57 -20 63 -45 3 -16 13 -34 21 -41 8 -6 14 -17 14 -23 1
-30 20 -39 97 -43 76 -3 79 -4 111 -41 17 -20 35 -53 38 -73 4 -26 14 -41 33
-50 32 -16 70 -60 65 -74 -7 -18 21 -80 36 -80 20 0 115 98 146 151 25 43 51
56 114 58 31 1 70 31 90 70 8 16 29 39 46 53 18 13 41 46 54 76 36 88 117 131
165 89 23 -21 45 -56 45 -74 0 -6 9 -31 21 -55 21 -43 21 -45 4 -91 -26 -69
-22 -112 12 -140 31 -25 104 -62 125 -62 17 -1 44 -21 49 -38 3 -10 12 -6 32
12 23 22 38 26 90 27 91 2 108 4 150 17 123 39 116 39 172 11 72 -36 105 -150
57 -202 -52 -57 -61 -120 -19 -131 43 -11 54 -7 62 27 8 34 7 101 -1 128 -2 9
15 46 39 82 25 36 47 73 50 82 25 64 168 225 200 225 33 0 44 41 42 158 -1 62
2 115 6 118 12 7 3 56 -13 68 -8 6 -13 17 -10 25 3 8 0 11 -6 7 -6 -3 -18 1
-27 10 -12 12 -13 19 -5 24 9 6 9 9 1 15 -7 4 -17 2 -24 -3 -8 -7 -18 -6 -31
4 -23 16 -76 19 -76 4 0 -5 8 -10 18 -11 9 0 12 -3 6 -5 -6 -3 -24 1 -40 7
-16 7 -35 13 -42 15 -22 4 -27 15 -12 24 9 5 19 5 26 -1 8 -6 14 -5 17 5 9 23
-12 30 -40 15 -22 -12 -27 -11 -38 5 -8 10 -18 15 -23 12 -5 -3 -18 4 -30 14
-12 11 -24 20 -27 20 -13 0 -64 44 -60 51 3 4 -11 13 -31 19 -19 7 -38 19 -42
29 -3 9 -14 24 -23 34 -9 10 -20 33 -23 50 -6 32 -67 107 -86 107 -6 0 -10 5
-10 11 0 6 -6 9 -14 6 -8 -3 -17 0 -20 8 -5 15 -44 17 -63 3 -7 -5 -14 -5 -18
2 -4 6 -15 8 -24 5 -12 -4 -27 5 -45 27 -23 27 -27 40 -23 72 3 21 1 48 -5 61
-11 25 -63 59 -77 50 -5 -3 -12 -1 -15 4 -7 11 -38 10 -93 -3z"/>
<path d="M4954 11862 c-25 -15 -53 -153 -54 -266 0 -16 -4 -34 -9 -40 -4 -6
-9 -51 -10 -100 -2 -80 0 -90 19 -103 11 -8 30 -35 42 -60 19 -40 24 -44 47
-38 14 3 43 18 63 32 20 14 41 22 46 19 22 -13 47 36 46 90 0 46 -4 57 -30 79
-16 14 -38 25 -49 25 -19 0 -34 22 -50 78 -3 12 -11 22 -16 22 -10 0 -13 53
-3 63 9 9 10 106 2 100 -5 -2 -8 0 -8 6 0 5 5 11 11 13 15 5 22 65 8 74 -9 5
-10 1 -7 -14 4 -12 2 -22 -3 -22 -4 0 -5 -7 -2 -17 4 -11 3 -14 -6 -9 -6 4
-11 13 -10 19 4 22 -16 56 -27 49z"/>
<path d="M13051 10797 c-14 -14 -15 -70 -1 -62 6 3 10 2 10 -4 0 -5 -6 -11
-12 -14 -7 -2 5 -7 27 -11 21 -4 51 -14 66 -21 25 -14 123 -14 136 -1 4 3 1 6
-5 6 -7 0 -12 7 -12 15 0 8 -7 15 -15 15 -8 0 -31 16 -50 36 -30 30 -41 35
-66 30 -16 -3 -29 -2 -29 3 0 14 -37 20 -49 8z"/>
<path d="M8880 10741 c0 -7 -5 -9 -11 -6 -15 10 -59 -34 -59 -59 0 -11 -10
-30 -22 -43 -20 -22 -21 -23 -2 -24 10 -1 22 -1 25 -1 12 2 46 -43 59 -78 27
-75 35 -90 47 -90 7 0 13 -4 13 -9 0 -4 24 -9 53 -9 28 0 64 -5 80 -11 15 -6
27 -7 28 -3 4 46 12 70 33 107 19 31 22 45 13 48 -9 4 -9 6 1 6 18 1 15 21 -4
21 -11 0 -14 6 -9 20 4 13 2 20 -7 20 -8 0 -24 9 -37 21 -12 12 -28 22 -34 23
-7 1 -24 10 -39 20 -19 12 -36 16 -56 11 -24 -5 -33 -1 -51 21 -11 15 -21 21
-21 15z"/>
<path d="M14421 10683 c-6 -10 -11 -14 -11 -9 0 5 -6 3 -14 -3 -10 -8 -16 -9
-21 -1 -9 15 -35 12 -35 -5 0 -9 9 -15 23 -16 20 0 21 -1 2 -8 -10 -4 -29 -25
-41 -47 -12 -21 -32 -44 -44 -50 -20 -11 -56 -64 -42 -64 3 0 -3 -6 -13 -14
-14 -10 -20 -30 -23 -79 l-4 -65 44 -30 c53 -36 67 -39 138 -24 30 7 68 13 83
14 38 3 48 26 53 117 2 42 6 92 9 111 6 34 6 34 -10 15 -16 -19 -16 -19 -11
14 5 28 3 32 -10 27 -13 -5 -15 -1 -12 19 3 14 1 28 -3 31 -5 3 -9 -5 -9 -18
0 -23 0 -23 -13 2 -8 14 -12 42 -9 63 4 39 -10 50 -27 20z"/>
<path d="M14819 10352 c-6 -18 -15 -32 -21 -32 -5 0 -6 -6 -1 -12 4 -7 8 -67
8 -133 0 -115 1 -120 23 -131 32 -16 76 -59 109 -106 22 -33 24 -41 12 -48 -8
-5 -14 -14 -14 -20 0 -6 -5 -14 -11 -18 -7 -4 -13 -16 -15 -27 -3 -15 -12 -20
-36 -20 -37 0 -35 2 -56 -52 -17 -44 -14 -73 7 -73 7 0 23 -11 35 -24 13 -13
38 -27 57 -31 19 -3 56 -19 81 -35 l45 -29 44 22 c29 14 47 30 51 46 3 13 3
78 -1 145 -4 67 -11 197 -15 289 -5 93 -11 171 -15 174 -3 3 -13 -2 -22 -12
-16 -16 -18 -16 -34 5 -9 12 -23 20 -31 19 -8 -2 -29 1 -47 5 -22 5 -38 4 -45
-3 -6 -6 -19 -11 -28 -11 -9 0 -20 -7 -23 -16 -3 -8 -10 -12 -16 -9 -15 9 -12
25 4 25 11 0 13 9 9 38 -3 20 -11 46 -17 57 -5 11 -10 23 -11 27 -1 22 -17 16
-26 -10z"/>
<path d="M15760 10152 c0 -7 -3 -11 -7 -11 -49 8 -66 -40 -63 -181 4 -218 5
-217 -52 -332 -26 -54 5 -62 58 -16 32 28 45 33 104 36 67 4 67 4 95 -31 35
-47 58 -122 50 -167 -4 -19 -18 -52 -32 -72 -20 -30 -24 -44 -19 -73 7 -36 13
-38 73 -20 7 2 15 0 18 -6 4 -5 10 -7 15 -4 16 10 96 -33 114 -59 9 -14 21
-49 27 -78 6 -29 17 -60 25 -69 8 -8 14 -25 14 -37 0 -13 12 -29 28 -39 35
-23 49 -34 72 -57 20 -20 20 -19 20 16 0 52 29 134 56 159 23 22 26 22 57 7
39 -19 48 -13 90 49 27 39 77 69 92 55 3 -4 25 -7 47 -8 52 -2 90 -40 111
-112 13 -42 13 -56 1 -103 -22 -86 -19 -106 19 -124 19 -9 49 -31 67 -50 32
-33 38 -35 98 -35 48 0 71 -5 92 -20 16 -11 35 -18 42 -15 8 3 22 40 33 83 10
42 25 87 33 100 41 63 156 66 195 5 9 -14 43 -18 49 -5 2 4 29 28 61 54 62 50
116 66 177 53 27 -6 36 -16 56 -61 13 -30 24 -65 24 -78 0 -26 28 -56 53 -56
9 0 24 -8 34 -19 21 -22 65 -33 153 -36 36 -2 70 -4 76 -4 6 -1 28 -17 49 -37
26 -24 43 -33 54 -28 9 4 42 10 74 12 45 3 63 0 77 -13 11 -10 26 -15 34 -12
10 4 13 1 10 -7 -3 -8 -2 -16 3 -19 8 -5 10 22 5 60 -1 6 -11 9 -22 6 -21 -6
-28 11 -10 22 6 4 8 15 5 26 -4 13 -2 19 9 19 9 0 17 -1 19 -2 1 -1 22 13 46
30 32 23 55 32 84 32 35 0 46 -6 87 -47 43 -45 49 -48 97 -48 40 0 57 -5 76
-23 37 -35 44 -13 39 116 -3 85 -7 110 -16 103 -7 -6 -21 -10 -31 -11 -11 0
-40 -3 -63 -6 -27 -4 -48 -2 -55 5 -6 6 -28 11 -49 11 -21 0 -38 5 -38 10 0 6
-11 15 -25 20 -27 10 -33 25 -12 33 7 3 2 9 -13 15 -14 6 -19 11 -12 11 19 1
14 18 -8 24 -11 3 -20 14 -20 24 0 10 -7 29 -16 42 -26 36 -45 110 -34 130 6
12 5 22 -2 29 -8 8 -8 15 1 26 8 9 8 16 2 20 -7 5 -6 15 1 32 9 20 9 27 0 33
-7 4 -10 15 -6 24 4 12 1 17 -12 17 -16 0 -17 2 -4 11 11 8 12 12 2 16 -6 2
-10 9 -6 14 3 5 1 9 -5 9 -5 0 -11 -5 -13 -12 -3 -7 -25 -11 -62 -10 -46 1
-57 -1 -52 -13 3 -8 -3 -17 -15 -20 -15 -5 -17 -10 -9 -20 8 -9 8 -15 0 -20
-6 -3 -8 -10 -6 -14 3 -4 1 -13 -4 -21 -7 -12 -13 -12 -34 -1 -21 11 -28 12
-41 1 -12 -10 -15 -10 -15 4 0 19 3 18 -39 6 -26 -7 -37 -6 -48 5 -8 8 -10 15
-4 15 6 0 11 7 11 15 0 8 -9 15 -21 15 -30 0 -59 18 -59 38 0 13 -7 9 -28 -14
-25 -29 -71 -56 -57 -34 3 6 -5 10 -19 10 -14 0 -26 5 -26 10 0 6 7 10 15 10
8 0 15 5 15 11 0 7 -10 9 -25 5 -18 -5 -28 -1 -37 14 -13 21 -38 27 -38 10 0
-5 -10 -11 -22 -11 -21 -1 -21 -2 -3 -6 33 -8 42 -23 14 -24 -13 -1 -32 -1
-41 0 -10 1 -18 -4 -18 -13 0 -9 -4 -16 -10 -16 -5 0 -10 5 -10 10 0 6 -6 10
-12 9 -28 -4 -98 14 -98 25 0 7 -15 19 -32 27 -24 10 -34 22 -36 42 -2 15 -12
32 -23 37 -10 6 -19 17 -19 25 0 30 -24 64 -52 74 -16 6 -27 15 -23 21 3 5 -1
11 -9 11 -32 3 -37 4 -44 14 -13 19 -57 42 -89 47 -18 2 -30 1 -27 -4 3 -4 0
-8 -5 -8 -6 0 -11 -9 -11 -20 0 -11 -5 -20 -11 -20 -5 0 -8 -4 -5 -9 3 -4 -8
-23 -24 -41 -17 -19 -30 -39 -30 -46 0 -16 -26 -27 -70 -30 -19 -2 -52 -6 -72
-9 -34 -6 -38 -5 -38 13 0 24 -36 40 -53 23 -8 -8 -6 -15 9 -26 10 -8 14 -15
7 -15 -19 0 -52 41 -46 57 5 12 -1 13 -31 8 -24 -5 -36 -3 -36 4 0 6 6 11 12
11 7 0 2 7 -10 16 -12 8 -22 21 -22 28 0 8 -10 16 -21 19 -15 4 -20 11 -16 22
7 16 -11 65 -23 65 -3 0 -12 24 -19 53 -18 71 -52 112 -116 143 -30 14 -57 29
-60 35 -4 5 -15 9 -26 9 -10 0 -19 5 -19 10 0 6 -4 10 -10 10 -5 0 -10 -8 -10
-17 -1 -17 -1 -17 -11 0 -6 10 -22 17 -39 17 -17 0 -30 5 -30 10 0 6 -12 15
-26 20 -19 8 -42 5 -95 -13 -38 -13 -67 -26 -64 -29 3 -3 -40 -8 -96 -11 -91
-5 -106 -3 -142 16 -23 11 -50 22 -60 22 -11 1 -25 8 -31 16 -22 27 -56 52
-56 41z"/>
<path d="M15403 10127 c-4 -6 -8 -77 -10 -157 -2 -135 -1 -147 20 -177 12 -18
25 -33 28 -33 6 0 13 26 26 98 3 18 9 35 14 38 11 6 12 88 2 98 -5 4 -8 33 -8
64 0 31 -4 59 -10 61 -5 2 -20 7 -32 12 -15 5 -25 4 -30 -4z"/>
<path d="M12055 10113 c-11 -7 -27 -13 -37 -13 -15 0 -17 -8 -16 -45 2 -30 7
-45 16 -45 7 0 11 -4 7 -9 -3 -6 1 -13 9 -18 7 -4 15 -17 17 -28 3 -12 14 -21
27 -23 12 -2 22 -8 22 -13 0 -20 40 -8 44 14 16 79 16 104 -3 121 -11 10 -17
24 -15 31 3 7 -7 19 -24 27 -24 13 -32 13 -47 1z"/>
<path d="M12375 10034 c-9 -14 -14 -28 -11 -33 3 -4 -6 -14 -20 -21 -22 -12
-25 -19 -22 -63 l3 -49 54 -20 c55 -21 131 -86 131 -114 0 -8 5 -12 10 -9 6 3
10 14 10 24 0 10 9 30 20 44 11 14 20 32 20 40 0 9 4 17 10 19 5 2 14 18 19
36 8 27 7 34 -10 42 -10 6 -19 8 -19 5 0 -4 -7 0 -15 9 -8 8 -15 19 -15 25 0
6 -4 11 -10 11 -5 0 -19 9 -30 20 -11 11 -29 20 -39 20 -10 0 -21 6 -24 14
-10 26 -45 26 -62 0z"/>
<path d="M5308 9769 c-36 -16 -48 -28 -53 -50 -7 -31 -21 -39 -27 -14 -2 12
-16 6 -58 -26 -30 -22 -69 -54 -86 -70 -17 -16 -32 -27 -35 -25 -2 3 -43 -24
-89 -60 -47 -36 -105 -79 -129 -97 -25 -18 -59 -45 -78 -61 -18 -15 -33 -24
-33 -19 0 5 48 47 108 93 59 47 129 107 156 133 28 26 69 60 93 75 43 27 54
42 31 42 -7 0 7 18 32 40 50 44 40 56 -11 13 -18 -15 -38 -28 -45 -28 -7 0
-40 -25 -75 -55 -34 -30 -73 -63 -86 -73 -13 -10 -21 -22 -19 -26 3 -4 -12
-18 -33 -32 -22 -13 -37 -27 -34 -32 2 -4 1 -6 -4 -5 -4 1 -19 -4 -33 -11 -21
-12 -20 -8 10 24 l35 38 -35 -23 c-49 -32 -150 -132 -150 -147 0 -7 -4 -13 -8
-13 -22 0 -129 -211 -117 -231 3 -4 -1 -9 -9 -12 -7 -3 -19 -35 -26 -74 -7
-37 -19 -72 -26 -78 -17 -13 -64 -108 -64 -128 0 -9 10 -18 23 -20 22 -4 22
-4 -1 -6 -23 -1 -24 -4 -19 -56 3 -34 0 -56 -7 -60 -6 -3 11 -3 37 -1 58 4 54
-2 -10 -20 l-48 -13 40 -1 c39 -2 39 -2 -18 -15 -58 -12 -74 -26 -102 -80 -9
-16 -6 -24 15 -43 l25 -24 -32 6 c-28 5 -39 0 -75 -35 -24 -22 -34 -36 -24
-33 13 5 17 4 13 -3 -4 -6 -1 -14 5 -16 7 -3 4 -6 -7 -7 -19 -1 -19 -1 -2 -14
16 -12 16 -14 1 -20 -8 -3 -27 -6 -41 -6 -18 0 -24 -4 -19 -15 3 -9 0 -15 -10
-15 -8 0 -12 -4 -9 -10 4 -6 -5 -10 -19 -10 -16 0 -26 -6 -26 -15 0 -8 -9 -24
-20 -35 -11 -11 -20 -27 -20 -35 0 -8 -6 -15 -13 -15 -7 0 -18 -9 -24 -19 -10
-15 -9 -22 1 -30 29 -24 95 -45 150 -47 42 -2 67 -9 85 -23 14 -12 55 -41 91
-66 58 -40 71 -45 120 -45 30 0 93 7 139 15 47 8 86 13 88 11 8 -8 -64 -25
-127 -31 -36 -3 -76 -8 -90 -11 -24 -5 -24 -6 8 -21 49 -24 58 -47 26 -72 -33
-26 -40 -26 -89 3 -121 73 -165 96 -185 96 -12 0 -18 4 -15 10 14 23 -18 42
-60 36 -26 -4 -57 -1 -84 9 -56 19 -95 19 -112 -1 -10 -13 -10 -17 2 -25 8 -5
21 -9 30 -9 9 0 22 -7 30 -16 11 -13 9 -14 -17 -8 -59 15 -86 9 -116 -26 -15
-19 -26 -36 -23 -38 2 -3 28 -10 57 -18 31 -7 42 -13 28 -13 -14 -1 -41 3 -59
9 -47 13 -51 5 -7 -16 47 -23 47 -38 0 -18 -44 19 -57 11 -17 -10 21 -11 23
-15 10 -16 -26 0 -59 19 -52 31 4 5 -3 9 -14 9 -12 0 -21 6 -21 13 0 26 -28
-42 -34 -84 -9 -59 -39 -107 -77 -123 -25 -10 -28 -14 -14 -20 9 -3 27 -6 39
-6 13 0 26 -3 30 -7 4 -4 26 -6 49 -5 l42 2 -30 -14 c-16 -8 -26 -15 -21 -15
6 -1 1 -8 -10 -16 -15 -11 -16 -15 -4 -15 10 -1 9 -4 -5 -10 l-20 -9 20 0 c45
-1 145 31 219 71 24 13 51 18 106 22 25 2 72 6 105 10 33 3 109 8 168 10 99 3
110 2 128 -17 10 -11 19 -24 19 -29 0 -4 4 -8 10 -8 6 0 6 9 0 26 -13 33 -13
34 3 28 8 -3 20 2 27 11 7 8 20 15 29 15 19 0 45 -36 36 -50 -4 -6 -2 -10 3
-10 6 0 18 -20 29 -45 10 -25 24 -47 31 -50 17 -6 16 -3 -18 104 -17 51 -30
98 -30 103 0 8 18 5 58 -9 6 -3 12 0 12 6 0 6 -8 11 -18 11 -31 0 -31 10 -1
41 16 16 29 40 29 53 0 13 7 29 15 36 25 21 76 101 70 110 -3 5 3 11 13 15 11
3 38 23 62 45 44 40 100 66 125 56 7 -2 15 0 17 6 5 13 48 -21 48 -37 0 -6 5
-16 11 -22 9 -9 17 -6 31 13 11 13 27 23 36 22 13 -2 18 6 20 30 2 20 9 32 18
32 12 0 12 3 2 20 -9 15 -24 20 -53 20 -22 0 -58 5 -80 11 -110 29 -145 40
-145 48 0 12 68 7 103 -8 37 -14 188 -14 241 1 22 6 50 20 62 30 11 10 26 18
32 18 7 0 12 6 12 13 0 7 14 21 30 30 29 17 40 37 21 37 -5 0 -11 6 -14 14 -5
11 0 13 23 6 39 -11 54 -21 44 -29 -5 -3 -15 -17 -22 -29 -12 -22 -12 -23 10
-17 13 4 27 11 32 16 6 5 28 9 49 9 30 0 38 3 33 15 -3 8 4 21 16 29 19 13 19
17 7 32 -13 16 -11 17 22 10 40 -7 49 -3 42 23 -4 16 -10 17 -41 11 -21 -5
-74 -11 -120 -15 -45 -4 -85 -11 -88 -17 -3 -5 -20 -7 -37 -4 -29 6 -30 5 -8
-4 48 -21 12 -21 -45 0 -33 11 -88 28 -122 36 -35 9 -60 19 -55 24 21 19 83
30 165 30 49 0 87 4 84 9 -3 4 70 8 162 7 152 0 172 2 225 23 43 17 61 30 68
49 7 18 7 28 0 30 -7 2 -7 11 1 25 7 12 11 25 10 30 -1 4 5 7 13 7 13 0 13 3
4 13 -10 11 -25 7 -80 -21 -38 -18 -76 -32 -86 -29 -16 4 -16 5 2 11 54 20
115 52 120 64 8 22 -34 4 -112 -48 -39 -27 -89 -53 -110 -59 -21 -6 -108 -10
-193 -10 l-155 1 90 13 c49 7 93 11 98 8 15 -9 155 28 202 53 26 13 50 22 54
20 4 -3 13 0 21 6 12 8 12 9 -3 4 -11 -4 -16 -2 -12 5 4 6 14 8 23 4 9 -3 30
6 51 23 20 16 46 34 59 41 12 6 22 18 22 25 0 7 20 27 45 45 46 33 56 45 30
35 -10 -4 -15 0 -15 10 0 15 -3 15 -32 0 -18 -9 -60 -42 -93 -73 -33 -31 -51
-46 -41 -33 28 33 11 27 -64 -23 -73 -49 -166 -95 -190 -94 -8 0 19 17 60 38
107 54 229 136 255 171 12 16 32 62 45 102 12 40 27 81 31 91 5 9 5 17 0 17
-4 0 -16 -21 -26 -47 -23 -60 -55 -122 -55 -105 0 7 15 59 34 115 19 56 39
123 46 148 11 44 50 116 50 94 0 -5 19 10 42 35 31 34 40 40 35 23 -3 -13 -1
-23 3 -23 5 0 16 -3 25 -6 12 -5 15 -1 11 17 -2 13 -7 31 -10 39 -7 18 -56 25
-56 9 0 -6 -13 -21 -28 -34 -16 -13 -40 -45 -53 -71 -13 -26 -30 -56 -38 -65
-8 -10 -16 -25 -17 -33 -5 -38 -26 -85 -40 -90 -10 -4 -13 -14 -10 -28 3 -13
3 -17 0 -10 -7 16 -34 -3 -34 -24 0 -8 -4 -14 -10 -14 -5 0 -10 -5 -10 -11 0
-6 -20 -37 -45 -69 -48 -62 -160 -150 -232 -182 -67 -30 -64 -14 4 20 54 28
142 91 182 131 70 71 141 193 181 311 17 52 44 118 59 146 32 59 26 80 -28 90
-17 4 -31 11 -31 16 0 5 5 6 10 3 6 -3 10 3 10 14 0 28 -20 18 -48 -24 -12
-19 -27 -35 -32 -35 -14 0 -52 -64 -79 -132 -15 -37 -42 -77 -80 -115 -86 -88
-152 -147 -196 -176 -41 -27 -154 -68 -184 -66 -9 0 -2 5 14 11 73 24 131 52
208 101 47 29 58 51 14 29 -37 -20 -176 -62 -202 -62 -13 0 -26 -4 -29 -9 -3
-5 -21 -9 -40 -8 -38 1 -40 21 -3 33 40 13 192 109 227 144 49 48 85 78 75 61
-5 -9 4 -6 21 6 29 20 142 218 131 229 -6 6 -66 -88 -94 -148 -16 -34 -28 -48
-43 -48 -11 0 -20 -4 -20 -10 0 -5 -5 -10 -11 -10 -7 0 -9 10 -4 27 6 23 4 25
-10 13 -9 -7 -14 -19 -11 -27 3 -8 2 -12 -3 -9 -4 3 -32 -24 -61 -59 -30 -36
-63 -68 -74 -71 -12 -4 -29 -13 -39 -22 -9 -8 -20 -12 -23 -9 -3 3 35 52 85
108 94 104 110 136 43 83 -20 -17 -52 -36 -70 -43 -21 -9 -31 -19 -28 -28 3
-8 1 -11 -4 -8 -5 3 -20 0 -32 -6 -21 -11 -22 -11 -9 5 31 37 0 24 -76 -33
-56 -41 -79 -53 -76 -41 5 18 120 120 170 151 13 8 21 20 18 29 -3 9 10 27 32
45 20 17 68 56 107 89 39 32 79 64 90 71 10 8 15 18 11 24 -4 7 -21 -1 -48
-24 -27 -23 -47 -33 -59 -29 -10 3 -18 1 -18 -4 0 -10 -47 -35 -72 -38 -9 0
-32 -10 -52 -22 l-34 -20 5 36 c3 20 14 49 24 64 24 34 24 35 -6 42 -38 10
-31 41 18 86 37 35 39 40 20 40 -35 0 -27 17 11 24 30 6 72 36 50 36 -4 0 1 7
12 15 29 22 -1 19 -58 -6z"/>
<path d="M9366 9655 c15 -23 15 -25 0 -19 -9 3 -16 10 -16 15 0 17 -19 9 -25
-12 -7 -20 -8 -20 -26 -3 -17 15 -19 16 -14 2 7 -18 -9 -19 -34 -3 -10 6 -16
4 -19 -4 -4 -11 -6 -11 -12 0 -7 10 -12 10 -23 1 -7 -7 -17 -8 -21 -4 -4 4
-14 -2 -22 -12 -8 -11 -15 -16 -15 -10 -1 5 -4 -4 -8 -21 l-7 -30 -17 30 c-10
19 -16 24 -17 13 0 -9 -4 -20 -10 -23 -6 -3 -7 1 -4 9 11 29 -11 16 -34 -19
-26 -42 -46 -47 -32 -9 12 31 12 34 1 34 -5 0 -14 -14 -20 -30 -11 -33 -34
-60 -49 -60 -5 0 -12 -9 -15 -20 -3 -11 -10 -20 -17 -20 -7 0 -9 9 -5 23 5 19
5 20 -5 4 -6 -9 -15 -15 -21 -12 -5 3 -6 -1 -3 -9 7 -19 -7 -21 -24 -4 -7 7
-12 9 -12 6 0 -4 7 -14 16 -23 13 -12 14 -19 5 -28 -8 -8 -11 -8 -11 1 0 7 -5
12 -11 12 -6 0 -9 -6 -6 -13 8 -20 -7 -39 -25 -32 -10 4 -14 16 -11 33 l3 27
-15 -30 c-8 -16 -14 -36 -15 -42 0 -7 -4 -13 -10 -13 -5 0 -6 -8 -3 -17 6 -16
5 -17 -12 -3 -17 14 -18 14 -6 -8 7 -12 13 -42 13 -65 1 -23 8 -49 15 -59 8
-9 16 -24 17 -33 3 -17 81 -105 94 -105 4 0 7 -18 7 -39 0 -22 -2 -38 -5 -36
-3 2 -5 -24 -5 -58 0 -54 3 -62 20 -65 11 -2 25 -8 31 -13 12 -10 34 8 34 28
0 7 5 13 10 13 6 0 10 8 10 18 0 9 10 22 23 27 12 6 21 16 20 22 -1 6 13 18
32 27 19 10 35 21 35 25 0 10 38 24 58 22 6 -1 12 3 12 10 0 8 4 8 15 -1 8 -7
15 -9 15 -4 0 5 41 8 91 7 67 -2 100 2 122 14 17 8 32 12 34 7 2 -5 32 -8 67
-8 58 2 67 -1 88 -24 13 -15 23 -34 23 -42 0 -8 8 -14 18 -14 13 2 16 -3 12
-17 -5 -15 -1 -19 16 -19 12 0 28 8 36 18 14 16 14 16 9 0 -4 -13 0 -18 14
-18 14 0 20 -7 19 -22 0 -13 -3 -17 -6 -10 -9 23 -25 12 -19 -14 5 -17 3 -23
-4 -19 -6 4 -10 -6 -10 -24 0 -31 23 -44 33 -18 4 10 6 10 6 0 1 -7 8 -13 17
-13 11 0 14 -6 9 -20 -4 -11 -2 -20 4 -20 6 0 11 12 11 28 1 23 2 25 11 9 14
-23 2 -58 -17 -50 -10 3 -12 0 -8 -10 3 -9 12 -18 20 -21 8 -3 14 -10 14 -16
0 -6 -4 -8 -10 -5 -5 3 -7 0 -5 -8 3 -7 -5 -24 -17 -38 -19 -20 -22 -34 -20
-76 2 -29 -2 -62 -8 -73 -6 -11 -7 -20 -1 -20 5 0 11 7 15 15 3 9 18 15 36 15
35 0 40 -15 8 -23 -12 -4 -19 -9 -15 -13 3 -4 18 1 31 10 24 15 26 15 35 -2 6
-11 6 -24 0 -33 -14 -22 -10 -36 5 -16 7 9 15 17 18 17 7 0 3 -34 -7 -50 -4
-8 5 -3 21 11 44 40 91 69 97 62 4 -3 10 2 13 11 5 14 9 15 15 4 7 -10 14 -7
31 13 54 63 110 79 158 46 50 -34 70 -68 79 -132 10 -69 -3 -111 -62 -198 -36
-54 -38 -62 -34 -114 3 -30 9 -58 15 -62 5 -3 11 -15 13 -25 4 -17 6 -16 17 8
10 22 10 26 0 20 -10 -6 -10 -5 -1 7 6 8 14 28 16 44 3 17 10 29 17 27 9 -2
11 7 7 30 -4 18 -2 49 2 68 8 31 16 19 12 -17 -1 -6 3 -14 8 -17 9 -6 41 52
41 74 0 6 5 8 10 5 7 -4 9 2 5 18 -4 15 -2 28 6 32 8 5 10 4 5 -3 -4 -8 -2
-10 8 -6 8 3 12 12 9 20 -3 9 -11 13 -17 11 -8 -3 -11 5 -8 26 l5 30 13 -24
13 -24 1 29 c0 22 4 27 16 22 14 -5 15 -4 4 9 -8 10 -9 15 -1 15 6 0 11 5 11
10 0 6 -7 10 -15 10 -8 0 -15 4 -15 10 0 5 6 7 14 4 11 -4 13 0 9 18 -6 21 -5
22 11 9 16 -13 17 -12 11 12 -5 19 -3 27 5 27 9 0 8 6 -4 19 -13 14 -14 24 -7
44 5 14 14 28 20 31 6 4 8 20 4 38 -5 26 -4 30 10 25 16 -6 16 -5 1 18 -12 19
-13 25 -3 25 7 0 10 3 6 6 -3 3 3 29 15 58 28 70 30 95 7 119 -11 12 -17 27
-15 33 3 7 -6 20 -20 29 -14 9 -22 20 -19 25 3 4 -1 10 -7 13 -7 2 -10 7 -7
11 4 4 23 -9 43 -28 19 -20 40 -36 45 -36 6 0 -9 18 -33 40 -51 47 -71 52 -62
14 5 -17 3 -23 -4 -19 -5 3 -10 23 -10 44 l0 38 -40 -3 c-41 -4 -55 10 -20 19
13 3 20 14 20 31 0 17 -4 24 -13 20 -8 -3 -14 2 -14 10 0 8 6 12 14 9 9 -4 11
0 7 11 -4 12 -2 15 9 10 8 -3 18 -1 21 5 4 6 -9 10 -34 9 -32 0 -40 -4 -36
-15 3 -8 -1 -24 -9 -36 -13 -19 -15 -19 -15 -4 0 10 -4 15 -10 12 -5 -3 -10 1
-10 9 0 8 4 17 9 20 5 3 7 16 5 29 -2 12 -2 16 2 10 6 -15 44 -18 44 -4 0 5
-12 11 -26 14 -19 3 -35 -3 -60 -25 -19 -17 -34 -25 -34 -19 0 14 37 51 50 51
6 0 10 7 10 15 0 9 6 12 18 8 12 -4 10 1 -7 15 -13 12 -20 22 -16 22 5 0 4 5
-2 11 -7 7 -38 12 -70 11 -32 0 -50 2 -40 5 15 4 16 7 5 21 -12 15 -11 16 4 4
17 -13 73 -11 86 4 4 4 0 5 -9 1 -9 -3 -22 0 -28 6 -6 6 -11 8 -11 3 0 -4 -10
0 -22 8 -25 18 -83 22 -73 6 4 -6 -4 -6 -21 0 -15 6 -33 9 -41 6 -7 -3 -13 -1
-13 4 0 6 -12 10 -27 10 -20 0 -24 3 -14 9 8 5 27 5 45 0 38 -11 36 -11 34 4
-2 6 -16 15 -33 18 -29 6 -29 6 8 8 26 1 37 -3 37 -13 0 -8 7 -17 16 -20 26
-10 30 -6 10 9 -11 8 -15 15 -9 15 7 0 15 -4 18 -10 10 -16 62 -12 69 6 9 24
7 31 -5 12 -9 -16 -11 -16 -27 0 -10 9 -16 19 -13 22 4 3 -12 23 -34 45 -22
22 -37 36 -32 31 12 -16 8 -21 -17 -22 -17 -1 -30 9 -50 39 -16 25 -26 34 -26
24 0 -10 9 -28 20 -40 12 -12 16 -23 10 -25 -5 -2 -21 10 -35 26 -26 31 -65
48 -65 29 0 -6 7 -19 16 -28 16 -18 15 -18 -22 -3 -22 9 -50 30 -62 49 -21 30
-28 33 -69 32 l-46 0 32 -26 c32 -26 32 -27 8 -26 -28 2 -70 32 -80 58 -10 25
-30 22 -22 -4 7 -22 7 -22 -26 1 l-34 24 25 -29 25 -28 -30 16 c-16 8 -45 20
-64 26 -29 9 -32 9 -21 -4 11 -13 8 -13 -23 0 -43 18 -50 19 -42 5 3 -6 -1 -7
-9 -4 -9 3 -13 10 -10 15 7 12 -7 11 -26 -1 -12 -8 -12 -10 -1 -10 8 0 12 -2
9 -5 -6 -6 -58 18 -58 28 0 4 -5 7 -10 7 -6 0 -3 -11 6 -25z"/>
<path d="M5917 9553 c-18 -4 -17 -6 4 -29 12 -13 30 -24 38 -24 9 0 28 -11 43
-25 15 -14 31 -25 36 -25 5 0 21 -13 35 -30 15 -16 31 -30 36 -30 5 0 28 -18
52 -40 24 -22 50 -40 57 -40 7 0 31 -9 53 -21 35 -17 47 -32 80 -103 42 -90
69 -214 70 -325 0 -76 7 -66 40 58 21 78 49 133 49 97 0 -29 8 -15 15 24 3 19
10 39 16 45 5 5 9 19 9 31 0 13 5 26 10 29 9 6 14 -10 13 -42 -1 -7 3 -10 8
-7 15 9 10 -6 -14 -39 -30 -42 -49 -87 -37 -87 6 0 10 6 10 14 0 8 5 18 11 22
8 4 9 0 4 -15 -4 -12 -2 -21 4 -21 6 0 11 7 11 15 0 8 5 15 10 15 6 0 10 7 10
16 0 8 4 13 10 9 8 -5 26 44 46 128 3 15 9 25 13 22 6 -7 7 -13 9 -68 1 -26 6
-36 13 -31 8 5 9 32 5 90 -6 72 -11 88 -34 113 -15 16 -46 34 -71 41 -53 14
-44 27 23 29 11 1 16 4 13 7 -4 4 -53 9 -109 11 -132 5 -128 5 -128 15 0 4 6
8 13 8 9 0 8 3 -2 9 -11 7 -9 10 9 16 21 7 22 8 6 17 -10 6 -37 7 -61 4 -24
-4 -55 -4 -69 0 -23 5 -25 9 -14 22 11 13 10 14 -14 8 -17 -4 -28 -2 -28 3 0
6 -7 8 -15 5 -8 -4 -17 1 -21 10 -5 12 -10 14 -19 6 -8 -7 -17 -4 -30 10 -10
11 -24 20 -32 20 -8 0 -11 5 -8 10 4 6 -6 10 -23 10 -16 0 -32 3 -36 7 -8 9
-94 13 -119 6z"/>
<path d="M15528 9352 c-1 -4 -22 -22 -45 -40 -48 -37 -67 -83 -61 -147 4 -53
28 -56 105 -14 104 57 111 71 63 125 -16 19 -33 46 -36 59 -6 24 -19 33 -26
17z"/>
<path d="M6010 9281 c-23 -22 -40 -43 -38 -48 2 -4 -7 -19 -20 -33 -14 -14
-22 -19 -18 -12 16 28 -11 9 -29 -21 -28 -46 -30 -54 -12 -38 15 12 17 11 17
-8 0 -12 -12 -50 -26 -84 -45 -107 -45 -107 -26 -100 54 20 76 50 102 138 19
66 91 205 106 205 18 0 18 14 0 29 -11 9 -23 3 -56 -28z"/>
<path d="M19052 8818 c12 -30 23 -90 27 -138 6 -83 7 -85 31 -82 36 4 40 12
45 88 4 55 9 73 26 87 l21 17 -23 20 c-13 10 -33 20 -44 20 -15 0 -17 2 -6 9
9 6 10 11 2 15 -6 4 -16 4 -21 1 -6 -4 -17 -2 -25 5 -9 8 -15 8 -20 0 -5 -8
-10 -8 -20 0 -9 7 -6 -7 7 -42z"/>
<path d="M8786 8674 c-4 -10 -2 -13 7 -8 9 5 9 4 0 -6 -9 -10 -15 -10 -26 -1
-8 6 -22 9 -31 5 -17 -7 -22 -29 -7 -39 5 -3 12 -19 16 -35 4 -17 11 -30 16
-30 20 0 38 -59 35 -114 -1 -31 1 -56 6 -56 18 0 6 -36 -19 -57 -14 -13 -21
-23 -14 -23 8 0 5 -9 -6 -24 -14 -19 -23 -22 -40 -15 -22 8 -23 7 -23 -49 0
-51 5 -67 40 -123 75 -120 127 -240 133 -310 3 -35 4 -58 1 -52 -4 10 -13 9
-37 -3 -57 -29 -60 -34 -36 -61 13 -12 28 -23 36 -23 7 0 13 -4 13 -10 0 -19
-22 -10 -63 25 -46 40 -69 43 -97 15 -23 -23 -34 -26 -27 -6 7 18 -20 25 -60
14 -33 -9 -46 -28 -19 -28 18 0 29 -27 13 -33 -9 -3 -9 -8 1 -20 11 -13 10
-17 -5 -26 -10 -6 -12 -11 -5 -11 6 0 12 -3 12 -7 0 -5 -20 -8 -45 -8 -25 0
-45 5 -45 10 0 10 -17 11 -69 6 -10 -1 -11 -4 -2 -15 10 -12 5 -14 -28 -12
-21 1 -46 -3 -55 -10 -15 -10 -14 -15 11 -45 l27 -34 -26 23 c-18 16 -28 20
-33 12 -4 -6 -13 -9 -21 -6 -8 3 -14 1 -14 -5 0 -5 10 -13 22 -18 l22 -8 -21
-12 c-29 -15 -36 -14 -29 5 4 11 1 14 -13 12 -10 -2 -25 3 -33 10 -12 10 -22
9 -52 -3 -44 -18 -47 -30 -6 -22 16 4 29 3 29 -1 -4 -22 5 -33 44 -51 23 -11
49 -22 57 -25 9 -2 6 -5 -8 -5 -12 -1 -49 13 -82 29 -43 21 -74 30 -110 30
-46 0 -67 -12 -37 -23 6 -2 -5 -6 -26 -9 l-38 -4 23 19 23 18 -24 -6 c-16 -5
-21 -4 -17 4 10 15 1 14 -37 -5 -18 -9 -59 -45 -93 -80 -33 -34 -52 -58 -42
-53 11 6 42 14 69 18 37 6 49 5 49 -5 0 -7 9 -16 20 -19 17 -6 18 -8 6 -21 -8
-8 -19 -14 -25 -14 -5 0 -27 -11 -47 -25 -20 -14 -48 -25 -61 -25 -15 0 -22
-4 -17 -11 3 -6 1 -15 -7 -20 -8 -5 -2 -7 19 -7 18 1 35 5 38 10 3 4 14 8 24
8 20 0 80 31 80 42 0 4 -10 9 -22 11 -15 3 -14 4 5 2 15 -1 32 4 38 12 6 7 15
11 19 8 10 -6 1 -45 -11 -45 -5 0 -9 -6 -9 -13 0 -36 -170 -88 -212 -66 -12 6
-37 12 -57 13 -38 3 -70 -12 -51 -24 5 -3 -8 -5 -31 -4 -23 1 -45 8 -50 15 -5
9 -9 9 -9 3 0 -7 -7 -14 -14 -17 -10 -4 -13 -1 -9 9 3 9 -5 5 -20 -8 -18 -16
-22 -25 -14 -30 12 -7 2 -12 -17 -9 -5 1 -3 -5 4 -14 12 -14 10 -15 -14 -5
-34 12 -39 13 -31 1 6 -10 -34 -37 -49 -33 -16 5 -96 -49 -96 -65 0 -10 -6
-14 -20 -10 -13 3 -18 1 -13 -6 4 -6 -2 -8 -15 -5 -12 4 -20 2 -16 -3 3 -5 -6
-14 -20 -20 -14 -7 -23 -16 -19 -22 3 -6 1 -7 -5 -3 -16 9 -83 -27 -77 -42 3
-7 0 -10 -5 -7 -6 3 -10 2 -10 -3 0 -6 -12 -13 -26 -16 -16 -4 -24 -12 -21
-20 4 -9 -2 -12 -17 -9 -13 3 -28 -2 -35 -11 -11 -13 -10 -17 5 -23 19 -7 43
-32 44 -45 0 -4 -12 -5 -27 -3 -16 2 -32 4 -38 4 -5 1 -3 6 5 11 12 8 10 10
-10 10 -20 0 -22 2 -10 10 9 6 10 10 3 10 -6 0 -18 -6 -25 -12 -20 -19 -61
-41 -54 -30 3 6 -1 13 -10 16 -22 9 -26 8 -22 -6 3 -7 -1 -23 -8 -36 -7 -14
-10 -30 -8 -37 7 -17 -12 -28 -53 -32 -23 -3 -33 1 -33 11 0 21 -88 32 -107
13 -13 -13 -11 -15 11 -21 37 -9 34 -40 -6 -60 -18 -8 -27 -16 -20 -16 7 0 10
-5 6 -11 -3 -6 -3 -14 2 -18 17 -12 87 -122 81 -127 -3 -3 -24 20 -47 51 -23
31 -55 70 -72 86 -32 30 -78 39 -78 16 0 -8 -11 -12 -29 -11 -40 3 -129 -29
-155 -56 l-21 -22 41 20 c22 12 52 22 65 23 71 6 82 -16 14 -27 -29 -4 -49
-13 -55 -24 -9 -17 -23 -22 -87 -35 -13 -2 -31 -9 -40 -15 -16 -9 -15 -10 7
-9 40 2 50 0 50 -11 0 -6 -6 -10 -12 -9 -37 5 -40 -1 -18 -38 26 -44 38 -136
21 -157 -8 -10 -9 -21 -1 -40 22 -59 14 -75 -47 -102 -146 -64 -240 -120 -267
-159 -7 -11 -28 -46 -45 -78 -35 -65 -81 -111 -128 -129 -21 -7 -33 -19 -33
-30 0 -10 -9 -51 -21 -91 -11 -39 -25 -90 -30 -112 -6 -22 -16 -47 -24 -55 -7
-8 -16 -26 -20 -40 -5 -22 -2 -27 29 -38 38 -14 39 -16 36 -72 0 -19 5 -44 13
-54 14 -19 15 -19 40 8 14 15 31 25 36 21 11 -6 77 43 171 126 102 91 151 129
168 129 9 0 49 28 87 62 69 61 151 118 190 132 19 7 19 8 3 17 -22 12 -23 32
-4 48 15 12 10 51 -6 51 -5 0 0 13 12 30 12 16 18 34 15 40 -3 5 -1 11 4 11 6
1 15 2 20 3 5 0 13 5 18 10 5 5 -1 7 -14 3 -13 -3 -23 -1 -23 4 0 5 -10 9 -22
9 -20 1 -21 2 -6 11 12 7 24 6 38 -1 16 -9 18 -8 14 5 -7 17 0 18 41 2 54 -22
113 -68 153 -121 l39 -53 -41 4 c-22 3 -57 0 -76 -6 l-35 -11 39 5 c74 8 123
-5 170 -46 24 -22 47 -39 51 -39 4 0 5 15 2 34 -4 27 -2 35 13 39 10 3 24 0
31 -7 9 -8 11 -7 6 6 -4 10 -3 17 1 17 18 -3 35 2 29 7 -3 4 9 22 28 41 19 19
35 39 35 44 0 5 4 9 9 9 5 0 40 31 78 70 37 38 74 70 81 70 6 0 12 5 12 10 0
6 11 16 25 22 14 6 25 17 25 25 0 7 12 19 28 26 15 6 33 17 40 24 7 7 18 13
23 13 6 0 8 4 5 8 -21 34 431 49 549 19 56 -15 57 -16 20 -15 -59 1 -103 -4
-82 -9 19 -5 22 -14 7 -29 -7 -7 0 -9 22 -6 18 3 27 7 21 9 -20 7 -15 23 7 23
13 0 18 -5 14 -15 -5 -11 1 -15 20 -15 27 0 36 15 14 23 -7 3 7 5 32 5 50 1
103 -16 94 -29 -3 -5 2 -6 11 -3 17 7 125 -34 125 -47 0 -5 11 -9 24 -9 14 0
28 -5 32 -11 5 -9 -1 -10 -20 -5 -18 4 -25 3 -21 -4 3 -5 15 -10 26 -10 11 0
17 -4 14 -10 -3 -5 -1 -10 5 -10 7 0 10 7 6 15 -3 8 -4 15 -2 15 9 0 106 -54
167 -93 128 -83 189 -131 176 -139 -8 -5 -5 -8 10 -8 12 0 24 -4 27 -9 4 -5
-4 -7 -16 -5 -21 4 -21 4 -3 -5 11 -4 23 -7 27 -4 4 2 55 -32 114 -76 147
-109 264 -163 349 -160 20 1 13 4 -22 10 -114 19 -212 71 -373 199 -380 303
-614 416 -943 460 -108 14 -194 13 -311 -5 -112 -17 -137 -13 -49 7 89 20 367
17 473 -5 265 -56 480 -168 802 -418 169 -131 238 -175 317 -202 132 -45 240
-34 510 54 197 64 302 89 380 89 69 0 199 -36 254 -70 53 -33 62 -36 51 -18
-5 7 -3 8 5 4 7 -5 10 -11 7 -14 -8 -7 24 -42 37 -42 6 0 2 10 -8 23 -10 12
11 -8 47 -44 144 -147 222 -369 243 -700 4 -58 10 -110 13 -116 4 -5 35 -13
70 -16 55 -5 63 -3 60 11 -2 11 -14 17 -33 17 l-30 1 -7 114 c-4 62 -12 127
-18 144 -8 24 -7 32 5 38 17 10 19 45 5 82 -6 17 -6 44 0 77 5 27 13 101 17
162 l8 112 7 -70 c16 -157 25 -222 35 -240 5 -11 16 -53 23 -92 10 -57 11 -82
2 -112 -7 -21 -12 -57 -12 -79 0 -36 3 -42 24 -48 30 -7 52 -59 35 -81 -7 -7
-20 -11 -30 -8 -14 5 -16 1 -12 -15 5 -17 13 -20 69 -20 50 0 64 3 64 15 0 8
5 15 10 15 6 0 10 -7 10 -15 0 -12 14 -15 70 -15 56 0 70 3 70 15 0 8 5 15 10
15 6 0 10 -7 10 -15 0 -12 16 -15 80 -15 66 0 78 2 74 15 -4 8 -1 15 5 15 6 0
11 -7 11 -15 0 -12 16 -15 85 -15 70 0 85 3 85 16 0 8 5 12 10 9 6 -4 8 -10 5
-15 -3 -5 36 -10 85 -12 81 -3 91 -1 87 14 -3 11 1 16 12 16 35 -3 92 14 88
25 -2 7 -10 13 -18 13 -8 1 -21 2 -29 3 -12 1 -13 3 -1 10 7 5 22 6 32 4 10
-3 19 -1 19 4 0 9 -42 33 -85 49 -17 6 -16 8 10 13 17 3 29 10 27 16 -2 5 5
12 15 16 13 4 8 8 -19 13 -46 8 -57 23 -23 32 26 6 35 24 13 24 -10 0 -10 2
-1 8 6 4 -13 7 -41 7 -29 0 -59 -5 -67 -11 -26 -20 -47 -23 -53 -8 -3 9 -1 12
4 9 14 -9 90 36 90 52 0 12 21 17 65 14 20 -2 20 -1 1 14 -11 8 -30 15 -44 15
-13 0 -21 4 -18 9 4 5 0 12 -6 14 -13 5 42 11 75 8 9 -1 17 1 17 4 0 19 -69
101 -130 156 -38 34 -70 66 -70 71 0 13 41 -13 88 -57 23 -21 42 -34 42 -27 0
7 -4 12 -10 12 -5 0 -6 7 -3 17 4 10 2 14 -4 10 -6 -4 -10 -1 -10 6 1 6 -4 30
-10 52 -7 22 -15 57 -18 77 -3 21 -9 37 -13 37 -4 -1 -15 -1 -24 0 -26 2 -22
21 3 21 16 0 20 4 15 18 -15 37 -51 80 -89 104 -38 25 -39 26 -18 37 14 8 21
8 21 1 0 -5 5 -10 11 -10 6 0 19 -10 30 -22 10 -13 18 -18 19 -11 0 6 -5 15
-10 18 -6 4 -8 11 -4 16 3 5 1 16 -5 23 -14 16 4 82 24 90 8 3 19 -2 24 -11 8
-15 12 -13 34 13 17 19 22 32 16 39 -7 6 -13 5 -20 -5 -8 -12 -10 -9 -6 12 2
15 1 25 -4 23 -4 -3 -6 10 -5 27 1 18 -2 39 -7 46 -5 6 -6 12 -3 12 4 0 -7 20
-24 45 -17 25 -29 51 -27 58 3 7 6 4 6 -7 1 -12 6 -16 17 -12 9 3 18 6 20 6 2
0 4 7 4 16 0 8 5 12 10 9 6 -3 10 -1 10 5 0 6 6 18 14 25 9 9 14 42 15 97 2
91 -7 93 -34 11 -27 -86 -34 -78 -37 46 -1 32 4 48 18 59 16 12 16 14 2 9 -21
-7 -24 13 -6 31 8 8 9 12 1 12 -6 0 -13 -6 -16 -12 -2 -7 -7 -10 -11 -6 -4 3
0 21 9 38 9 18 12 29 6 26 -6 -4 -11 -1 -11 8 0 8 6 17 13 19 7 4 6 6 -4 6
-20 1 -30 22 -22 50 3 12 0 27 -6 35 -10 11 -8 16 6 20 13 4 18 17 19 43 1 21
5 52 8 68 4 17 -6 2 -21 -31 -41 -91 -67 -122 -36 -44 38 94 41 143 11 172
-13 13 -39 47 -57 76 -18 28 -38 52 -45 52 -6 0 -4 5 4 10 8 5 10 10 4 10 -7
0 -14 9 -17 20 -3 11 -11 19 -17 18 -7 -2 -15 3 -18 11 -3 8 0 11 7 7 6 -4 11
-2 11 3 0 15 -6 14 -34 -4 -20 -13 -25 -14 -35 -1 -8 10 -9 16 -1 21 5 3 10 1
10 -4 0 -6 4 -11 10 -11 5 0 1 14 -9 31 -10 17 -17 38 -14 47 2 10 -5 22 -17
30 -16 10 -20 10 -20 0 0 -7 -5 -5 -11 6 -9 14 -8 20 2 27 11 6 2 21 -36 61
-28 29 -54 55 -58 59 -5 3 -8 10 -8 15 0 5 -12 7 -28 6 -16 -2 -32 1 -35 7 -4
6 -22 18 -41 27 -19 9 -35 22 -35 28 0 7 -9 21 -21 32 -11 10 -33 32 -50 49
-16 16 -29 27 -29 25 0 -3 11 -38 25 -79 14 -41 25 -91 24 -110 -1 -44 27
-245 46 -321 17 -71 23 -129 30 -265 8 -162 14 -220 24 -246 9 -23 10 -23 11
6 0 17 4 36 9 44 10 16 3 43 -9 36 -16 -10 -5 60 14 88 11 16 16 37 14 52 -3
14 -2 25 1 25 12 0 30 74 19 81 -7 4 -6 9 2 14 6 4 9 13 6 21 -3 8 -1 14 4 14
6 0 10 11 10 24 0 14 5 28 10 31 13 8 12 -18 0 -70 -19 -73 -29 -146 -24 -160
10 -24 37 11 31 40 -3 17 0 25 10 25 8 0 12 -3 10 -7 -3 -5 -8 -30 -12 -58 -3
-27 -11 -55 -17 -62 -7 -9 -7 -13 1 -13 16 0 14 -16 -5 -34 -14 -15 -14 -16 0
-16 9 0 16 -4 16 -10 0 -5 -4 -10 -9 -10 -6 0 -11 -24 -13 -52 -2 -40 -7 -52
-17 -50 -11 2 -12 0 -3 -11 9 -10 9 -17 -1 -26 -9 -11 -9 -14 1 -18 6 -3 12
-11 12 -19 0 -17 -42 -104 -50 -104 -4 0 -7 -147 -7 -327 -1 -181 -4 -371 -8
-423 -4 -52 -8 -107 -9 -122 0 -14 -5 -24 -10 -21 -4 3 -5 -5 0 -18 4 -13 7
-28 7 -34 -1 -12 -12 -224 -17 -305 -7 -120 -9 -120 -16 0 -4 69 -19 213 -34
320 -14 107 -34 265 -46 350 -37 286 -109 773 -145 980 -20 113 -45 255 -55
315 -57 326 -111 521 -187 668 -43 83 -133 197 -155 197 -6 0 -5 -8 3 -17 11
-16 11 -16 -1 -5 -8 7 -15 18 -15 25 0 14 -113 73 -122 63 -3 -3 17 -29 45
-58 39 -39 52 -61 57 -92 4 -23 8 -48 11 -57 6 -22 -27 -19 -51 4 -10 10 -27
42 -39 70 l-21 52 0 -120 0 -120 -47 -114 c-47 -113 -85 -180 -133 -235 -26
-31 -32 -41 -15 -31 6 3 5 -6 -2 -21 -10 -21 -10 -28 -1 -31 7 -3 10 -10 7
-18 -3 -7 1 -19 9 -26 13 -12 12 -20 -9 -62 -30 -59 -89 -102 -160 -118 -44
-10 -70 -9 -148 4 -81 13 -104 21 -155 57 -58 39 -113 98 -169 184 -25 37 -25
39 -7 52 16 12 20 11 31 -4 7 -9 16 -14 20 -9 4 4 2 7 -4 7 -7 0 -12 7 -12 15
0 9 -6 18 -14 21 -35 13 -55 104 -23 104 8 0 7 4 -1 12 -7 7 -8 17 -2 28 5 9
5 22 -1 31 -17 27 -9 27 54 2 102 -42 105 -44 100 -63 -4 -13 5 -21 34 -31 73
-26 104 -20 71 13 -16 16 -18 22 -7 29 11 8 11 11 -3 20 -10 5 -18 17 -18 26
0 9 -17 31 -39 49 -47 41 -73 91 -60 115 13 25 -8 67 -42 84 -45 24 -198 40
-260 27 -44 -8 -58 -8 -76 4 -12 8 -29 14 -38 14 -8 0 -15 4 -15 10 0 5 -6 7
-13 5 -7 -3 -27 10 -45 30 -19 19 -37 35 -41 35 -5 0 -6 11 -3 25 3 16 -2 33
-13 45 -18 20 -18 20 24 17 24 -2 50 2 61 10 22 16 19 21 -35 74 -26 26 -27
29 -10 30 11 0 14 3 8 6 -18 7 -16 21 5 26 16 4 16 5 0 6 -10 0 -18 5 -18 10
0 11 99 30 102 20 3 -10 83 12 124 34 27 14 29 13 55 -19 l27 -34 6 31 c3 18
6 42 6 55 0 13 4 24 8 24 8 0 64 -94 68 -112 4 -21 6 -21 15 1 7 18 6 27 -3
33 -10 6 -10 10 -1 16 10 7 10 14 0 35 -6 15 -16 27 -20 27 -4 0 -3 -9 3 -19
13 -25 13 -41 0 -41 -5 0 -10 10 -10 22 0 14 -22 43 -57 78 -71 69 -113 120
-113 137 0 7 -4 13 -10 13 -11 0 -60 47 -60 58 0 8 -36 33 -62 44 -22 9 -24
-5 -3 -22 22 -18 18 -57 -6 -81 -20 -20 -29 -21 -114 -16 -56 3 -97 1 -103 -5
-6 -6 -19 0 -36 19 -21 22 -28 25 -35 14 -7 -11 -10 -9 -16 9 -8 24 17 99 46
141 10 15 23 37 28 50 5 13 25 48 45 78 20 29 36 59 36 67 0 19 35 17 90 -5
39 -16 45 -22 42 -44 -2 -16 4 -32 15 -41 71 -59 95 -74 113 -69 11 3 17 10
13 16 -4 7 6 8 30 4 49 -8 57 10 13 28 -20 9 -36 19 -36 24 0 14 115 24 138
12 12 -6 29 -11 39 -10 10 0 13 3 6 6 -7 2 -13 10 -13 18 0 14 -86 54 -136 62
-19 3 -31 9 -28 14 3 5 0 9 -5 9 -15 0 -14 30 2 31 15 2 11 2 69 -5 26 -3 58
-2 70 3 l22 8 -22 12 c-12 6 -22 9 -22 6 0 -3 -10 1 -22 9 -12 9 -32 16 -45
16 -12 0 -24 4 -27 9 -4 5 -46 8 -96 5 -49 -2 -91 0 -95 5 -3 5 -13 7 -24 4
-11 -3 -21 2 -25 13 -6 16 -8 16 -16 4 -8 -13 -13 -13 -38 1 -27 15 -30 15
-40 0 -9 -14 -14 -12 -39 17 -32 36 -38 38 -47 16z"/>
<path d="M5944 7752 c7 -12 -2 -13 -92 -16 -17 -1 -32 -2 -32 -2 0 -1 9 -21
20 -45 11 -24 19 -51 19 -59 0 -8 -13 13 -29 48 -31 67 -32 68 -131 64 -45 -1
-109 -27 -109 -43 0 -8 3 -9 13 0 19 15 30 1 14 -18 -11 -14 -10 -14 6 -2 10
8 15 21 12 29 -4 10 0 12 11 8 8 -3 17 -6 19 -6 2 0 8 -15 15 -34 7 -22 17
-33 28 -32 12 1 16 -6 14 -24 -2 -23 -2 -23 11 -6 24 32 67 9 102 -55 48 -84
103 -218 120 -289 15 -60 88 -234 135 -322 11 -20 20 -41 20 -46 0 -23 32 -85
39 -74 10 16 84 -57 77 -75 -3 -8 -1 -11 4 -8 6 3 10 1 10 -5 0 -19 -52 -4
-71 21 -10 13 -19 21 -19 17 0 -16 26 -65 48 -87 12 -14 20 -30 17 -38 -3 -7
-7 -19 -10 -26 -3 -7 1 -21 8 -31 14 -19 15 -18 38 9 13 15 36 39 52 53 33 31
34 58 5 90 -13 14 -16 22 -8 17 8 -5 4 4 -9 18 -25 28 -37 35 -25 16 8 -14
-20 1 -81 42 -45 31 -58 44 -61 66 -2 9 3 10 17 3 10 -6 19 -15 19 -21 0 -6 4
-8 9 -4 11 6 61 -15 61 -26 0 -5 7 -5 17 -2 11 4 14 3 9 -5 -4 -7 6 -20 26
-32 44 -26 52 -25 32 5 -9 14 -21 22 -27 18 -5 -3 -7 -2 -4 4 4 6 -5 20 -18
33 -13 13 -22 26 -20 30 2 4 -2 7 -9 7 -24 0 -138 86 -124 94 8 5 -1 15 -26
30 -23 13 -35 27 -32 35 3 8 1 14 -4 14 -5 0 -14 9 -20 21 -10 19 -10 20 8 10
11 -6 58 -20 104 -30 45 -11 91 -23 102 -27 13 -5 17 -3 14 6 -2 7 -16 15 -31
17 -15 2 -37 8 -50 14 -18 8 -15 8 13 3 19 -3 42 -6 51 -6 9 0 21 -10 28 -24
7 -16 19 -24 36 -24 15 0 24 4 20 10 -4 6 -10 8 -15 5 -4 -3 -7 3 -6 12 1 12
-17 23 -59 39 -149 54 -235 101 -235 127 0 5 -13 26 -30 47 -33 41 -39 60 -14
39 15 -12 16 -10 13 23 -4 26 -1 34 8 31 8 -3 13 -24 14 -52 0 -25 3 -40 6
-34 3 10 12 9 36 -3 l31 -17 -19 29 c-18 29 -18 29 2 12 36 -33 34 -19 -5 35
-38 51 -96 166 -88 174 2 2 15 -20 29 -51 25 -54 86 -145 98 -146 10 0 29 82
22 93 -4 6 -1 7 7 2 10 -6 11 -2 7 17 -4 13 -1 33 6 44 11 16 15 39 7 47 -1 1
-4 13 -5 27 -2 14 -13 46 -24 73 -27 62 -18 60 14 -3 14 -27 27 -50 30 -50 3
0 4 18 3 40 -1 30 -4 37 -14 29 -9 -7 -18 2 -35 36 -13 26 -27 49 -32 52 -16
10 -20 -6 -6 -24 13 -17 13 -17 -5 -3 -10 8 -31 13 -47 12 -35 -4 -71 6 -64
18 3 5 0 12 -6 16 -8 4 -9 3 -5 -4z"/>
<path d="M3344 7541 c3 -4 -5 -14 -18 -20 -27 -15 -60 -67 -51 -81 3 -6 17
-10 31 -10 43 0 141 -32 168 -55 41 -35 31 -75 -18 -75 -7 0 -23 9 -36 20 -29
25 -92 27 -120 3 -14 -12 -16 -19 -8 -24 8 -5 3 -11 -15 -18 -15 -6 -27 -15
-27 -21 0 -6 -11 -28 -25 -50 -14 -23 -20 -40 -14 -40 7 0 -1 -12 -16 -26 -21
-19 -25 -28 -16 -37 9 -9 16 -9 31 1 10 6 21 8 24 3 3 -4 -6 -13 -19 -19 -13
-6 -27 -7 -30 -3 -2 5 -17 11 -32 13 -16 3 -37 8 -48 12 -15 6 -13 2 8 -16 31
-27 33 -35 13 -57 -10 -13 -12 -33 -5 -91 4 -41 11 -86 15 -100 4 -14 6 -29 6
-33 -1 -4 5 -21 13 -37 9 -16 15 -32 15 -35 0 -3 7 -19 15 -35 9 -17 13 -30 9
-30 -4 0 -2 -6 4 -12 5 -7 13 -37 17 -66 7 -53 7 -53 -34 -93 -23 -21 -37 -39
-32 -39 5 0 12 4 16 9 3 6 18 16 33 24 26 13 28 12 28 -7 -1 -12 6 -22 18 -24
21 -4 38 16 31 36 -3 9 3 10 21 6 23 -6 25 -4 23 18 -2 14 7 37 23 58 24 30
27 32 42 17 19 -18 21 -34 5 -39 -6 -2 -3 -13 9 -28 31 -39 36 -18 12 51 -28
82 -18 171 35 293 9 21 14 41 11 44 -3 3 -6 0 -6 -6 0 -7 -4 -12 -9 -12 -5 0
-9 18 -9 40 0 22 -3 44 -6 49 -3 4 3 16 14 26 11 10 17 22 13 28 -3 5 -1 7 4
4 6 -4 13 0 17 8 3 8 10 15 16 15 13 0 4 -37 -13 -58 -14 -18 -19 -72 -6 -72
5 0 7 5 4 10 -3 6 0 13 8 16 8 3 25 33 37 67 42 120 111 244 179 326 l45 53
-24 18 c-26 20 -108 31 -117 16 -3 -5 3 -16 14 -25 28 -22 35 -61 17 -86 -14
-19 -16 -19 -25 -2 -6 10 -30 27 -54 38 -37 17 -46 27 -51 55 -5 30 -10 34
-36 34 -17 0 -27 -4 -23 -10 4 -6 -16 -10 -54 -10 -62 0 -91 6 -91 20 0 14 66
50 93 50 13 0 27 6 30 13 3 9 -8 13 -40 15 -24 1 -42 -2 -39 -7z"/>
<path d="M1955 7065 c-33 -17 -67 -43 -75 -58 -11 -20 -23 -27 -47 -27 -33 0
-98 -45 -87 -61 11 -18 57 -8 130 26 40 19 78 44 84 56 7 11 18 18 25 15 19
-7 45 26 45 57 0 32 0 32 -75 -8z"/>
<path d="M2190 6980 c-2 -8 -4 -71 -4 -140 l-1 -124 -43 -9 c-34 -7 -42 -12
-38 -25 3 -9 -1 -30 -9 -46 -19 -35 -19 -33 5 -39 14 -4 26 3 41 25 12 16 23
27 26 24 8 -8 -18 -106 -29 -106 -5 0 -6 -6 -2 -12 9 -15 6 -65 -6 -108 -9
-31 0 -39 18 -17 18 21 50 259 57 415 3 74 -9 199 -15 162z"/>
<path d="M4730 6968 c0 -2 9 -32 19 -67 15 -47 21 -100 23 -207 1 -79 6 -144
10 -144 15 0 20 72 14 200 l-6 132 35 -37 c19 -21 35 -34 35 -29 0 4 -12 21
-27 37 -28 28 -28 29 -8 44 14 10 15 14 5 13 -30 -4 -38 0 -33 20 4 13 14 20
32 21 23 0 24 1 6 9 -18 8 -105 14 -105 8z"/>
<path d="M805 6742 c-6 -4 -21 -20 -34 -37 l-23 -30 7 28 c5 17 3 27 -4 27 -6
0 -11 -5 -11 -11 0 -6 -7 -9 -15 -5 -10 4 -17 -3 -20 -22 -4 -15 -11 -46 -16
-70 -20 -91 16 -147 53 -82 19 33 38 39 38 13 0 -15 2 -16 10 -3 5 8 10 12 10
8 0 -23 39 36 39 59 0 15 3 45 7 66 4 24 2 37 -5 37 -6 0 -12 -8 -12 -17 -1
-10 -4 -3 -8 14 -4 20 -10 30 -16 25z"/>
<path d="M2476 6673 c-28 -31 -75 -80 -103 -108 -50 -50 -76 -89 -33 -50 30
27 27 -5 -5 -41 -81 -95 -125 -160 -131 -192 -4 -21 -14 -47 -22 -60 -8 -12
-12 -25 -9 -29 13 -13 36 20 53 77 10 33 21 60 26 60 4 0 33 39 65 88 48 74
134 186 154 202 12 9 69 110 62 110 -4 0 -30 -26 -57 -57z"/>
<path d="M1716 6694 c-5 -20 -11 -24 -27 -19 -15 5 -22 2 -26 -14 -4 -17 -8
-19 -19 -10 -10 8 -20 5 -42 -13 -16 -12 -35 -32 -42 -43 -11 -16 -10 -21 5
-30 10 -5 26 -18 36 -27 16 -16 19 -15 45 7 16 13 25 27 21 31 -3 4 11 19 32
34 23 17 40 39 44 56 9 50 -15 76 -27 28z"/>
<path d="M13905 6580 c-4 -6 -11 -8 -16 -5 -5 4 -12 -1 -15 -10 -4 -9 -21 -23
-38 -32 -32 -16 -76 -59 -76 -75 0 -4 -5 -8 -11 -8 -16 0 -39 -26 -39 -44 0
-9 -7 -16 -15 -16 -8 0 -15 -6 -15 -12 0 -9 -3 -8 -10 2 -5 8 -24 15 -42 15
-32 2 -33 0 -30 -31 5 -37 -12 -74 -33 -74 -27 0 -55 38 -55 76 l0 35 -25 -27
c-15 -17 -30 -24 -41 -20 -19 7 25 -48 62 -76 23 -18 35 -77 17 -79 -47 -5
-73 -2 -73 7 0 6 -18 31 -40 55 -22 24 -40 47 -40 51 0 5 -7 8 -16 8 -13 0
-14 -3 -4 -15 6 -8 9 -18 6 -23 -3 -5 -1 -37 4 -73 6 -40 6 -67 0 -73 -12 -12
-13 -53 -2 -60 4 -2 21 1 37 9 17 7 38 15 47 19 11 3 15 11 12 21 -4 10 0 15
11 15 9 0 14 -4 10 -9 -3 -5 0 -13 6 -17 7 -4 9 -3 5 4 -4 6 8 16 29 23 21 8
35 20 35 30 0 9 16 36 35 60 19 24 35 50 35 57 0 6 7 12 15 12 16 0 66 46 58
54 -8 8 44 26 73 26 14 0 24 -6 24 -14 0 -9 17 -15 48 -19 37 -5 50 -2 59 11
7 9 20 25 30 35 26 26 27 170 1 186 -11 7 -19 7 -23 1z"/>
<path d="M5087 6574 c-11 -11 -8 -79 3 -90 5 -5 13 -34 17 -64 7 -47 12 -55
31 -58 21 -3 22 -1 16 40 -9 57 8 40 31 -32 10 -30 26 -68 36 -85 9 -16 18
-34 19 -40 3 -13 15 -47 41 -111 11 -28 21 -76 21 -107 1 -31 5 -57 10 -57 4
0 8 -6 8 -14 0 -10 7 -12 22 -8 14 3 19 2 14 -6 -4 -7 -2 -12 5 -12 6 0 22
-11 35 -25 20 -22 30 -25 59 -19 36 6 51 -10 18 -19 -14 -4 -13 -5 3 -6 12 0
24 6 28 14 8 21 24 19 31 -6 4 -11 18 -24 31 -29 13 -5 24 -14 24 -20 0 -5 4
-10 9 -10 15 0 6 48 -12 68 -10 10 -17 23 -17 29 0 9 -52 33 -107 49 -8 2 -13
20 -13 42 0 56 -35 148 -71 190 -41 47 -70 113 -68 154 4 56 -1 88 -13 88 -6
0 -9 -2 -6 -5 8 -8 -18 -99 -30 -103 -24 -8 -52 37 -52 84 0 49 -15 88 -31 79
-5 -4 -7 -10 -4 -15 3 -5 1 -11 -4 -14 -5 -4 -13 4 -17 16 -11 36 -60 109 -67
102z"/>
<path d="M1746 6355 c-3 -13 -16 -30 -28 -36 -12 -6 -30 -20 -41 -30 -11 -9
-25 -15 -32 -13 -7 3 -16 0 -20 -6 -4 -6 -18 -15 -30 -20 -28 -11 -60 -55 -50
-70 3 -5 17 -7 31 -4 23 6 24 4 18 -20 -8 -32 -2 -33 32 -1 21 20 25 28 16 37
-17 17 -15 31 2 25 8 -3 16 -2 18 3 2 4 25 19 52 32 53 24 71 58 60 105 -8 30
-20 29 -28 -2z"/>
<path d="M14320 6363 c-56 -10 -89 -25 -95 -44 -4 -12 -19 -22 -36 -26 -34 -7
-39 -30 -7 -35 17 -2 25 -13 31 -40 5 -21 12 -38 17 -38 4 0 18 -11 31 -24 33
-32 60 -39 97 -23 35 14 92 81 92 107 0 10 6 23 14 30 8 6 12 19 9 28 -4 14
-3 15 6 2 8 -12 11 -12 17 3 8 22 50 22 63 0 6 -10 11 -13 11 -6 0 20 -42 43
-80 43 -20 0 -40 4 -45 9 -12 12 -91 21 -125 14z"/>
<path d="M15193 6230 c-3 -11 -13 -20 -22 -20 -9 0 -36 -18 -60 -40 -37 -34
-45 -38 -63 -29 -18 10 -20 9 -15 -6 4 -9 7 -19 7 -21 0 -2 7 -4 15 -4 9 0 21
-12 27 -26 9 -20 17 -24 35 -19 13 3 23 1 23 -5 0 -5 5 -10 11 -10 5 0 7 5 4
10 -3 6 3 10 14 10 12 0 21 -5 21 -12 0 -6 3 -9 6 -5 4 3 14 -4 24 -16 15 -18
28 -22 79 -21 34 0 61 -3 61 -8 0 -4 5 -8 10 -8 15 0 32 49 31 88 0 17 4 32 9
32 5 0 -5 20 -23 44 -24 33 -39 45 -59 45 -34 1 -79 21 -72 32 3 5 -9 9 -26 9
-23 0 -33 -5 -37 -20z"/>
<path d="M3290 6101 c-5 -11 -10 -38 -10 -60 0 -30 -5 -43 -20 -51 -25 -13
-26 -28 -2 -26 14 1 17 -8 17 -54 0 -48 -2 -55 -19 -52 -10 2 -15 -1 -11 -7 4
-7 -1 -8 -16 -2 -16 5 -32 3 -50 -8 -23 -13 -30 -13 -43 -2 -9 7 -16 20 -16
27 0 18 -54 19 -72 1 -18 -18 -258 -19 -251 -2 2 7 -3 15 -11 18 -19 8 -21 33
-3 40 8 3 6 10 -8 21 -34 27 -49 9 -30 -37 6 -16 4 -18 -16 -16 -13 1 -32 -2
-43 -6 -11 -5 -26 -3 -37 3 -24 15 -56 15 -65 0 -5 -8 2 -9 24 -5 40 8 42 -8
3 -27 -33 -17 -53 -53 -24 -41 10 3 30 9 46 12 22 4 26 2 21 -10 -3 -8 -1 -18
5 -22 6 -3 11 -1 11 5 0 7 13 10 33 8 43 -4 50 -39 12 -64 -14 -9 -32 -32 -40
-50 -8 -19 -21 -34 -29 -34 -23 0 -20 13 9 40 14 13 25 27 25 31 0 10 -41 6
-60 -6 -14 -10 -20 -19 -51 -92 -11 -25 -18 -30 -29 -23 -12 7 -12 14 -2 43
12 33 16 87 7 87 -21 0 -75 -37 -73 -50 2 -8 -6 -23 -17 -33 -16 -15 -17 -18
-3 -13 20 6 34 -10 16 -17 -9 -4 -5 -12 11 -25 13 -11 21 -24 17 -30 -7 -12
15 -92 26 -92 4 0 33 22 65 48 58 48 94 72 110 72 4 0 4 -4 -2 -8 -5 -4 -17
-16 -25 -27 -14 -19 -14 -20 6 -2 24 20 68 23 62 5 -5 -16 -120 -87 -130 -81
-13 7 -288 -220 -288 -238 0 -5 7 -9 15 -9 13 0 13 -3 -1 -26 -17 -25 -15 -24
47 11 35 20 74 41 86 47 25 12 34 32 35 77 l1 30 17 -22 c15 -18 20 -19 34 -8
14 12 16 10 16 -12 0 -14 7 -27 15 -31 8 -3 15 -12 15 -21 0 -9 12 -18 30 -21
33 -7 39 -20 13 -27 -16 -4 -16 -5 1 -6 11 -1 16 -6 13 -15 -3 -8 1 -17 9 -20
8 -3 14 -9 13 -13 -5 -32 3 -43 32 -43 17 0 28 -4 24 -10 -3 -5 -18 -10 -33
-10 -17 0 -23 -3 -16 -10 6 -6 22 -6 44 3 41 14 50 24 50 55 0 12 5 22 11 22
6 0 9 -14 7 -32 -3 -27 2 -34 30 -50 49 -27 72 -17 72 35 0 15 5 27 11 27 7 0
10 -14 7 -35 -2 -19 0 -35 4 -35 14 0 39 47 33 63 -4 8 -1 18 5 22 6 4 17 -8
25 -29 9 -20 21 -35 27 -33 8 1 11 -9 9 -30 -1 -18 1 -33 6 -33 20 1 30 19 41
70 l11 55 -6 -53 c-4 -41 -2 -51 9 -47 7 2 29 1 48 -4 l35 -8 -27 -8 c-16 -4
-28 -12 -28 -17 0 -6 -11 -7 -26 -4 -23 6 -25 5 -18 -16 13 -42 50 -51 79 -18
10 11 21 17 26 14 18 -11 62 11 81 40 16 25 19 26 15 9 -6 -25 11 -31 31 -11
9 9 12 9 12 0 0 -6 -15 -19 -32 -29 -33 -17 -33 -17 -8 -21 14 -2 29 -8 34
-13 16 -15 39 -11 32 7 -4 12 -1 14 14 9 13 -4 22 -1 26 8 3 8 -6 83 -20 168
-13 85 -27 201 -30 259 -3 58 -9 145 -12 194 -6 81 -8 87 -22 70 -13 -18 -14
-18 -8 6 7 24 7 24 -9 5 -10 -13 -18 -16 -23 -9 -28 43 -72 9 -72 -56 0 -24
-3 -40 -7 -36 -4 4 -6 24 -4 44 1 20 0 34 -4 30 -11 -11 -19 -71 -18 -137 1
-36 -2 -58 -7 -51 -6 10 -9 8 -13 -6 -4 -12 -5 -7 -5 11 2 63 -1 77 -17 71
-19 -7 -19 -5 2 39 15 30 18 33 24 18 6 -14 8 -12 8 10 1 16 -4 37 -9 47 -6
10 -11 30 -12 44 -2 27 -18 37 -18 12 0 -7 -9 -25 -21 -40 -11 -14 -18 -26
-14 -26 4 0 0 -7 -9 -15 -22 -22 -27 -18 -21 16 5 26 3 30 -10 25 -9 -3 -20
-6 -24 -6 -4 0 -24 -22 -44 -49 -22 -29 -48 -51 -62 -54 -20 -3 -23 -2 -14 9
16 19 2 54 -19 48 -12 -4 -13 -3 -5 3 7 5 16 24 19 42 6 31 6 32 -20 25 -16
-4 -26 -2 -26 5 0 16 -27 13 -34 -4 -3 -9 -12 -12 -23 -8 -27 10 -32 22 -19
54 10 29 13 30 71 28 72 -2 85 -6 85 -26 0 -12 7 -14 27 -8 15 3 31 12 35 18
10 16 139 12 150 -5 7 -10 12 -8 27 10 27 31 66 28 103 -8 35 -36 46 -37 50
-8 3 21 9 23 86 25 46 1 82 -2 82 -8 0 -14 26 -11 40 6 20 24 -11 53 -50 47
-36 -5 -42 20 -10 40 11 7 20 18 20 25 0 23 -20 23 -57 0 -21 -13 -46 -26 -55
-30 -11 -4 -15 -13 -11 -26 4 -16 1 -21 -14 -21 -22 0 -22 5 -23 188 0 50 -2
92 -5 92 -2 0 -9 -9 -15 -19z"/>
<path d="M7439 6068 c-13 -18 -32 -39 -42 -47 -15 -11 -16 -15 -6 -22 10 -6 5
-9 -16 -10 -16 0 -24 -3 -16 -6 10 -4 5 -10 -15 -19 -26 -11 -14 -12 98 -13
84 -1 129 3 134 10 5 9 -11 10 -57 5 -37 -4 -75 -3 -89 3 -18 7 -20 10 -7 10
21 1 23 21 1 21 -8 0 -13 4 -10 9 3 4 28 6 56 3 31 -3 50 -1 50 6 0 5 -9 8
-20 5 -11 -3 -20 -1 -20 5 0 6 -3 19 -7 29 -6 17 -6 17 14 1 11 -10 35 -18 54
-18 30 1 32 2 16 14 -15 12 -10 13 38 14 51 0 60 -4 56 -30 0 -3 12 -3 27 1
15 5 53 6 82 4 39 -4 52 -2 45 5 -5 6 -39 13 -75 15 -64 3 -63 3 17 5 45 1 84
5 86 10 3 4 -43 6 -101 5 -69 -1 -96 2 -77 7 28 7 28 8 -13 9 -27 1 -41 -3
-37 -9 4 -6 -6 -10 -22 -9 -25 0 -26 1 -8 9 14 6 0 9 -47 9 -64 1 -67 0 -89
-31z"/>
<path d="M14465 5870 c-3 -5 -12 -10 -19 -10 -16 0 -91 -73 -100 -96 -3 -8
-10 -12 -16 -9 -5 3 -10 2 -10 -3 0 -6 7 -13 16 -16 10 -4 13 -13 9 -26 -11
-34 3 -40 48 -20 23 11 55 20 70 20 22 0 30 6 39 31 9 25 15 30 35 26 20 -4
24 -1 20 14 -3 10 0 20 7 23 8 3 8 7 -1 13 -6 4 -15 21 -18 36 -6 23 -13 27
-40 27 -19 0 -37 -4 -40 -10z"/>
<path d="M10080 5598 c182 -64 302 -202 379 -434 16 -49 33 -111 37 -139 l8
-50 7 35 c5 19 5 51 2 70 -5 30 -7 32 -15 15 -6 -14 -7 -7 -3 20 3 26 2 33 -4
20 -7 -17 -9 -16 -15 10 -4 17 -21 63 -37 104 -16 41 -28 76 -25 78 3 3 47
-96 69 -157 4 -11 6 -11 6 -2 1 21 -49 141 -85 202 -18 30 -50 74 -71 96 -21
22 -32 33 -25 24 26 -35 10 -29 -49 18 -71 58 -147 97 -204 107 -31 5 -25 1
25 -17z"/>
<path d="M2020 5590 c-6 -11 -18 -20 -26 -20 -11 0 -13 -6 -9 -21 5 -14 0 -27
-14 -40 -12 -11 -21 -25 -21 -31 0 -9 -3 -9 -12 0 -19 19 -26 14 -33 -20 -8
-34 -22 -58 -35 -58 -14 0 -18 51 -5 64 7 6 15 23 19 36 6 23 5 22 -22 -8 -35
-40 -57 -102 -36 -102 8 0 11 -6 8 -15 -4 -8 -14 -15 -23 -15 -13 0 -17 7 -15
28 4 33 24 111 34 133 5 9 4 22 0 29 -14 23 -40 -8 -40 -46 0 -29 -3 -34 -24
-34 -16 0 -26 -7 -30 -22 -10 -38 -7 -51 9 -44 10 3 14 0 12 -12 -6 -39 -37
-59 -37 -24 -1 15 -2 15 -18 -3 -9 -11 -25 -21 -35 -23 -16 -3 -16 0 -5 20 7
13 18 26 23 31 15 11 -22 36 -46 30 -14 -4 -18 -11 -14 -24 8 -23 -20 -54 -37
-42 -18 11 -68 12 -68 2 0 -5 3 -8 8 -8 42 7 57 -15 17 -25 -14 -4 -25 -13
-25 -22 0 -15 10 -14 58 3 6 3 12 1 12 -5 0 -6 -13 -13 -30 -17 -33 -7 -37
-16 -17 -34 10 -8 19 -7 33 4 10 8 31 15 46 15 14 0 28 6 31 13 7 20 18 2 23
-39 6 -47 8 -50 36 -36 l23 11 -22 6 c-12 4 -24 14 -27 22 -5 12 -1 14 21 8
26 -6 38 -16 46 -40 2 -6 9 -5 19 2 10 9 18 9 25 2 6 -6 17 -9 25 -6 7 2 -6
12 -29 22 -24 9 -43 21 -43 25 0 4 -13 10 -29 13 -20 4 -30 13 -33 31 -3 15
-4 26 -3 26 2 0 33 -9 70 -21 43 -13 77 -18 97 -14 21 5 28 4 24 -4 -4 -6 0
-11 10 -11 13 0 9 -8 -16 -30 -33 -29 -27 -40 11 -20 15 8 19 7 19 -3 0 -19
36 -28 63 -17 12 5 18 9 12 10 -5 0 -3 5 5 10 13 8 10 14 -15 34 -47 38 -41
68 23 127 32 29 60 48 69 45 8 -4 17 4 23 20 18 46 13 64 -20 71 -32 6 -52 23
-28 23 8 0 23 6 34 14 19 15 19 15 -1 30 -26 20 -32 20 -45 -4z"/>
<path d="M2271 5553 c-8 -8 -14 -35 -13 -59 0 -39 -2 -43 -28 -49 -41 -9 -62
-39 -68 -95 -5 -51 8 -67 26 -33 6 10 16 14 27 9 13 -5 27 3 48 26 17 18 25
34 18 36 -17 6 -13 26 9 40 24 15 26 42 4 42 -14 0 -16 8 -11 50 3 28 5 50 4
50 -1 -1 -8 -8 -16 -17z"/>
<path d="M2524 5261 c-23 -3 -54 -16 -70 -28 -57 -45 -114 -83 -123 -83 -5 0
-11 -6 -14 -14 -4 -9 4 -15 23 -18 42 -6 139 14 145 30 4 11 -1 13 -21 9 -17
-3 -22 -1 -15 6 5 5 21 11 35 12 25 3 116 62 116 76 0 6 -29 21 -33 17 -1 0
-20 -4 -43 -7z"/>
<path d="M6165 5246 c-16 -7 -58 -26 -91 -41 -34 -15 -67 -24 -73 -21 -6 4
-11 3 -11 -2 0 -5 -18 -27 -39 -49 -31 -32 -37 -43 -28 -53 10 -10 7 -10 -11
0 -22 11 -27 8 -58 -26 -19 -20 -33 -38 -31 -40 6 -6 47 9 47 17 0 5 9 9 19 9
18 0 64 45 73 71 2 7 10 9 17 5 7 -5 10 -13 8 -20 -3 -7 9 -12 30 -14 40 -3
53 -9 53 -25 0 -8 -3 -8 -12 1 -35 35 -97 -2 -136 -83 -38 -77 -42 -120 -11
-112 16 4 18 3 9 -8 -10 -12 -17 -91 -9 -99 2 -2 21 3 42 13 39 16 77 75 77
117 0 11 5 25 11 31 8 8 6 18 -6 37 -10 14 -21 26 -25 26 -4 0 -10 7 -14 15
-10 28 22 15 44 -17 l22 -33 -6 33 c-3 18 -2 31 3 27 5 -3 12 1 15 7 16 34 -6
-77 -31 -154 -21 -66 -32 -88 -45 -88 -18 0 -21 -6 -22 -50 -1 -16 -6 -24 -15
-22 -8 2 -27 -2 -42 -9 l-28 -11 19 -37 c25 -47 64 -101 56 -78 -4 13 5 30 30
55 24 24 31 37 23 42 -16 11 -2 29 19 25 10 -1 26 3 37 11 16 12 17 16 6 23
-12 8 -12 11 1 24 8 9 23 15 33 14 9 -1 22 7 29 18 6 11 18 25 26 32 13 11 13
12 -2 13 -9 0 -23 -6 -30 -12 -12 -12 -88 -22 -88 -12 0 16 22 44 31 39 8 -6
28 -1 97 21 11 3 11 6 0 18 -7 8 -16 12 -20 9 -8 -4 -12 11 -9 35 3 22 -9 13
-20 -15 -13 -34 -29 -19 -34 32 -2 22 0 33 5 26 9 -15 15 -7 24 32 8 33 -1 36
-15 5 -8 -19 -9 -16 -5 16 5 41 16 59 23 38 3 -6 9 -9 15 -6 5 3 22 -5 36 -18
15 -14 34 -28 43 -31 9 -3 19 -20 21 -38 4 -25 1 -33 -14 -37 -20 -5 -24 -17
-7 -28 6 -3 18 0 26 8 24 25 7 86 -31 109 -39 23 -66 86 -45 103 15 12 25 56
13 56 -4 0 -16 -7 -26 -17 -11 -9 -18 -11 -18 -5 0 7 5 12 10 12 6 0 9 15 8
32 -3 28 1 34 20 36 12 2 22 10 22 18 0 17 2 17 -35 0z"/>
<path d="M1636 5149 c-8 -12 -13 -36 -11 -55 3 -29 0 -34 -15 -29 -9 3 -23 -1
-30 -10 -11 -13 -15 -13 -33 0 -31 22 -47 18 -47 -9 0 -27 15 -42 25 -26 11
18 31 11 43 -14 8 -18 8 -33 -1 -55 -13 -36 -42 -41 -52 -8 -4 14 -8 17 -12 9
-3 -7 -16 -17 -29 -22 -15 -6 -24 -18 -24 -31 0 -14 5 -19 14 -16 9 4 17 -2
21 -14 7 -20 39 -26 50 -9 3 6 15 10 26 10 11 0 18 4 15 9 -4 5 -2 20 3 33 9
20 16 11 12 -14 -1 -9 13 -10 88 -8 30 1 64 6 77 10 21 8 145 130 152 150 4
12 -30 50 -45 50 -7 0 -13 7 -13 15 0 17 -16 20 -25 5 -10 -16 -45 -12 -45 5
0 8 -9 15 -19 15 -14 0 -18 -5 -14 -19 4 -15 0 -18 -21 -14 -21 4 -24 8 -15
19 8 9 8 14 1 14 -6 0 -14 -5 -17 -10 -4 -6 -11 -7 -17 -4 -7 4 -1 14 13 25
l24 19 -32 0 c-21 0 -37 -7 -47 -21z"/>
<path d="M8003 5096 c2 -41 6 -47 38 -65 34 -20 200 -64 208 -56 2 3 4 20 5
40 1 34 -1 36 -59 60 -33 14 -83 32 -112 40 -29 8 -59 18 -67 21 -12 4 -14 -4
-13 -40z"/>
<path d="M2171 5000 c-62 -23 -56 -18 -66 -50 -7 -22 -6 -23 8 -11 14 11 19
10 34 -5 17 -17 18 -17 21 4 2 12 7 22 11 22 5 0 6 -12 3 -26 l-5 -26 41 21
c22 11 43 25 47 31 9 14 24 12 21 -2 -8 -39 -19 -50 -47 -44 -18 3 -29 1 -33
-9 -3 -9 0 -12 10 -8 8 3 14 -1 14 -10 0 -8 7 -18 16 -21 20 -8 24 -8 22 2 -1
4 1 17 6 30 8 24 26 28 44 10 20 -20 13 1 -8 24 -10 12 -17 24 -15 29 3 4 1
17 -3 30 -11 30 -53 33 -121 9z"/>
<path d="M9181 4968 c-34 -7 -41 -12 -30 -20 10 -7 7 -8 -11 -4 -14 2 -36 -2
-50 -10 -24 -15 -20 -15 25 1 11 4 -3 -6 -31 -23 -29 -16 -65 -39 -81 -50 -17
-12 -32 -19 -35 -17 -3 3 -5 -1 -5 -7 0 -7 -4 -20 -7 -29 -13 -29 25 -32 54
-4 32 31 50 33 24 3 -18 -20 -17 -20 13 2 18 13 29 28 26 33 -4 6 0 8 10 4 10
-4 16 -2 14 5 -1 6 13 17 31 25 19 7 31 9 27 3 -3 -5 -12 -10 -20 -10 -8 0
-16 -4 -19 -9 -4 -5 10 -4 29 1 19 6 32 15 30 19 -3 4 5 5 17 2 19 -4 20 -3 8
7 -12 8 -6 9 25 5 30 -5 36 -4 25 4 -12 9 -10 11 13 11 15 0 27 4 27 10 0 5
-7 7 -15 4 -9 -4 -15 0 -15 9 0 18 53 28 92 16 16 -4 30 -3 33 2 4 5 -6 10
-22 10 l-28 1 30 9 c28 8 28 8 -5 3 -19 -2 -60 -6 -90 -9 -41 -3 -47 -2 -25 4
27 8 28 9 5 9 -14 0 -45 -5 -69 -10z"/>
<path d="M7116 4935 c-16 -9 -36 -25 -43 -35 -8 -11 -22 -20 -31 -20 -11 0
-13 -3 -6 -8 6 -4 14 -17 18 -29 6 -19 4 -23 -13 -23 -11 0 -23 -4 -26 -10 -3
-5 -19 -10 -35 -10 -33 0 -80 -19 -80 -32 0 -5 -9 -6 -20 -3 -11 4 -20 2 -20
-4 0 -6 4 -11 9 -11 5 0 14 -13 21 -30 7 -16 16 -30 21 -30 4 0 35 -18 69 -41
77 -51 114 -58 167 -31 40 21 72 53 128 131 16 23 40 48 53 57 18 12 21 18 12
29 -8 10 -8 15 0 20 23 14 -24 34 -67 28 -30 -4 -46 -1 -57 10 -8 8 -13 17
-10 20 9 9 -80 -5 -101 -16 -18 -9 -19 -9 -6 6 7 10 19 17 26 17 7 0 15 7 19
15 7 18 8 18 -28 0z"/>
<path d="M9201 4864 c-80 -21 -147 -62 -202 -122 -27 -29 -49 -58 -49 -64 0
-16 45 -4 46 12 3 42 5 50 13 50 6 0 11 -15 13 -32 l3 -33 185 -1 c102 -1 161
2 131 5 -48 5 -52 8 -38 20 10 7 17 10 17 6 0 -4 7 -2 15 5 8 7 15 9 15 6 0
-4 7 0 16 8 9 9 32 16 55 16 26 0 46 7 60 21 l21 21 -4 -49 c-2 -37 -7 -49
-23 -55 -11 -3 40 -6 113 -7 l133 -1 -16 30 c-14 27 -14 30 0 30 8 0 15 -6 15
-13 0 -25 34 -45 88 -52 43 -5 52 -4 52 9 0 12 -10 16 -39 16 -34 0 -42 5 -61
35 -12 19 -24 35 -27 35 -3 0 1 -10 9 -22 28 -44 30 -65 4 -33 -14 17 -25 35
-26 42 0 6 -4 15 -10 18 -6 3 -7 -1 -4 -9 4 -11 0 -16 -11 -16 -12 0 -15 -5
-9 -22 6 -21 5 -22 -12 -8 -15 11 -16 11 -6 0 6 -8 12 -18 12 -22 0 -18 -17
-5 -44 33 -58 83 -219 160 -330 158 -28 0 -75 -7 -105 -15z"/>
<path d="M1442 4803 c-58 -21 -70 -28 -61 -39 9 -11 8 -14 -4 -14 -8 0 -18 6
-20 13 -3 6 -6 2 -6 -10 -1 -25 35 -41 52 -24 6 6 19 11 29 11 9 0 33 8 53 17
19 9 38 13 42 8 5 -4 2 -10 -4 -12 -7 -3 -13 -12 -13 -20 0 -13 -3 -13 -15 -3
-12 10 -20 9 -40 -4 -13 -9 -32 -16 -42 -16 -12 0 -14 -3 -6 -11 13 -13 53 -3
53 13 0 7 5 6 14 -2 22 -17 60 -8 71 18 10 23 25 30 25 12 0 -5 5 -10 10 -10
6 0 5 9 -2 23 -7 12 -14 23 -15 25 0 2 -9 5 -19 6 -10 2 -20 9 -22 16 -3 9 0
10 9 4 12 -7 12 -5 0 9 -7 9 -14 17 -15 16 0 0 -34 -12 -74 -26z"/>
<path d="M14818 4793 c-32 -2 -58 -9 -58 -14 0 -6 -9 -8 -20 -4 -11 3 -20 2
-20 -4 0 -10 -38 -27 -52 -23 -5 1 -8 -5 -8 -14 0 -8 -4 -13 -9 -10 -5 3 -11
-5 -13 -19 -3 -15 0 -26 10 -30 18 -7 6 -21 -23 -28 -14 -3 -11 -5 10 -6 50
-1 73 9 68 29 -6 23 38 70 65 70 26 0 62 -41 62 -72 0 -48 -62 -76 -99 -45
-13 11 -26 11 -71 1 -41 -9 -47 -12 -25 -13 17 0 41 -8 53 -17 12 -8 27 -12
34 -8 7 4 8 3 4 -4 -4 -7 -1 -12 8 -12 9 0 16 -4 16 -10 0 -5 -7 -10 -15 -10
-8 0 -15 -4 -15 -10 0 -5 4 -10 9 -10 6 0 13 5 16 10 3 6 17 10 30 10 13 0 27
5 30 10 4 6 11 8 16 5 8 -6 13 8 10 28 -1 4 7 3 18 -3 26 -13 41 -13 18 1 -12
7 -15 15 -9 22 13 17 22 58 11 51 -13 -8 -11 10 4 25 10 11 9 12 -2 6 -9 -5
-7 1 4 19 10 14 26 26 37 26 11 0 16 5 13 11 -4 6 2 13 13 16 13 3 18 11 15
19 -5 14 -11 14 -135 7z"/>
<path d="M14360 4766 c0 -14 -20 -16 -132 -18 -167 -3 -209 0 -225 14 -8 6
-17 8 -20 4 -4 -4 -2 -11 6 -15 7 -5 -10 -6 -37 -3 -44 4 -55 1 -102 -32 -55
-38 -133 -66 -184 -66 -18 0 -26 -4 -20 -9 5 -5 73 -11 152 -15 l142 -6 0 24
c0 28 33 56 65 56 31 0 69 -44 62 -71 -6 -21 -5 -22 81 -15 165 13 184 17 179
37 -11 41 67 93 88 59 3 -5 11 -10 17 -10 6 0 5 7 -3 18 -13 15 -12 16 3 4 9
-8 15 -19 12 -27 -3 -7 0 -16 7 -21 9 -5 10 -2 6 9 -3 9 -1 19 5 23 7 4 6 9
-3 15 -11 7 -9 9 6 9 14 0 16 3 7 12 -6 6 -27 11 -46 10 -20 -1 -42 5 -51 14
-13 14 -15 14 -15 0z"/>
<path d="M7514 4694 c-26 -19 -53 -34 -61 -34 -7 0 -45 -28 -85 -62 -40 -34
-75 -63 -78 -66 -13 -10 46 -42 80 -42 22 0 48 -8 63 -20 14 -11 33 -20 42
-20 9 0 19 -9 22 -20 3 -11 9 -20 14 -20 5 0 9 -7 9 -15 0 -10 10 -15 28 -15
16 0 37 -7 48 -15 16 -13 16 -14 2 -9 -24 8 -23 -3 1 -16 14 -7 28 -7 47 0 18
7 30 7 39 0 10 -8 16 -7 22 3 4 8 23 17 41 20 18 4 45 16 62 28 24 18 32 20
45 9 11 -9 15 -9 15 -1 0 7 4 9 10 6 5 -3 0 16 -11 42 -14 32 -18 58 -14 80 8
46 -35 113 -73 113 -10 0 -51 16 -92 36 -118 57 -121 57 -176 18z"/>
<path d="M9018 4625 c4 -32 7 -35 46 -40 22 -3 70 -4 105 -1 57 4 66 7 78 30
8 14 21 26 31 26 15 0 15 2 2 10 -8 5 -71 10 -140 10 l-126 0 4 -35z"/>
<path d="M9483 4643 c21 -5 22 -17 2 -36 -13 -13 -13 -16 1 -21 9 -4 97 -6
195 -5 l179 1 0 34 0 34 -50 0 c-40 0 -48 -3 -44 -15 4 -9 0 -15 -10 -15 -9 0
-16 7 -16 15 0 8 -9 15 -20 15 -18 0 -19 -3 -10 -21 6 -11 10 -25 8 -31 -2 -6
-10 3 -17 20 l-13 32 -112 -1 c-61 -1 -103 -3 -93 -6z"/>
<path d="M13386 4631 c-5 -7 -57 -11 -144 -12 -75 0 -146 -4 -157 -9 l-20 -9
20 -1 c20 -1 20 -1 1 -15 -18 -14 -17 -15 25 -15 24 0 74 -3 112 -7 l67 -6 0
27 c0 14 5 26 11 26 5 0 9 -10 7 -22 -3 -23 -2 -23 145 -26 l147 -3 0 31 0 30
-93 0 c-54 0 -98 5 -104 11 -8 8 -13 8 -17 0z"/>
<path d="M12740 4595 c0 -22 5 -25 33 -25 17 0 39 -5 47 -10 11 -7 2 -10 -32
-10 -38 0 -46 -3 -42 -15 4 -8 14 -15 23 -15 14 0 14 -2 1 -10 -10 -7 25 -10
108 -10 122 0 122 0 122 24 0 22 -4 24 -71 28 -65 3 -74 6 -100 36 -37 42 -89
46 -89 7z"/>
<path d="M14319 4616 c-2 -2 -65 -9 -139 -16 -74 -6 -140 -16 -147 -21 -7 -6
-26 -8 -42 -4 -27 6 -189 -5 -308 -21 -38 -5 -43 -8 -43 -30 0 -23 3 -25 28
-20 15 3 81 13 147 21 66 8 213 29 327 45 114 17 211 30 215 30 5 0 1 5 -7 10
-16 11 -24 12 -31 6z"/>
<path d="M6099 4594 c-10 -13 -10 -17 1 -24 9 -6 5 -12 -18 -24 -18 -9 -35
-16 -39 -15 -4 0 -9 -5 -12 -12 -2 -7 1 -9 8 -5 17 11 13 -20 -4 -34 -13 -11
-14 -10 -9 4 4 11 1 16 -10 16 -20 0 -13 -20 36 -92 41 -62 73 -91 42 -39 -10
17 -22 31 -26 31 -4 0 -8 8 -8 17 0 15 3 14 15 -4 9 -12 22 -20 30 -17 16 6 9
33 -12 51 -9 7 -10 13 -4 17 6 4 8 12 5 19 -6 18 35 53 69 59 27 5 27 5 11
-13 -10 -11 -15 -22 -12 -25 3 -3 15 4 26 16 21 23 19 50 -3 50 -8 0 -20 7
-29 15 -9 9 -17 11 -21 5 -3 -5 -1 -10 4 -10 6 0 11 -7 11 -17 0 -15 -2 -15
-19 1 -11 10 -17 24 -14 32 7 19 -1 18 -18 -2z"/>
<path d="M14245 4570 c-66 -10 -226 -33 -355 -50 -129 -17 -238 -34 -243 -37
-4 -2 -6 -17 -4 -31 4 -26 6 -27 103 -38 54 -7 182 -21 283 -33 101 -12 186
-20 188 -17 2 2 -18 7 -46 11 -46 6 -50 9 -41 26 6 10 10 22 9 26 -1 4 0 10 1
13 10 25 3 68 -13 82 -18 16 -18 17 0 17 31 1 236 32 268 41 l30 8 -30 0 c-16
0 -84 -9 -150 -18z"/>
<path d="M9478 4563 c26 -5 30 -23 5 -24 -13 0 -11 -3 7 -11 l25 -11 -30 -7
c-22 -6 -10 -8 45 -9 41 -1 103 -4 138 -5 66 -4 70 -1 56 52 -6 21 -9 22 -138
21 -72 -1 -121 -4 -108 -6z"/>
<path d="M10200 4392 c0 -113 -3 -171 -10 -167 -5 3 -10 44 -10 91 l0 84 -50
0 -50 0 7 -90 c4 -64 3 -90 -6 -90 -7 0 -11 29 -11 90 l0 90 -45 0 -45 0 0
-90 c0 -53 -4 -90 -10 -90 -6 0 -10 37 -10 90 l0 90 -40 0 -40 0 0 -95 c0 -57
-4 -95 -10 -95 -6 0 -10 38 -10 95 l0 95 -37 0 c-55 0 -83 -10 -82 -29 0 -10
2 -11 6 -3 2 6 13 12 24 12 13 0 19 -7 19 -24 0 -13 6 -27 13 -29 8 -4 9 -8 1
-14 -23 -17 -47 -82 -25 -68 5 3 12 1 16 -5 3 -5 -1 -10 -9 -10 -9 0 -16 -8
-16 -17 0 -16 -2 -16 -11 -3 -8 12 -9 10 -4 -9 4 -14 3 -21 -2 -18 -6 4 -20
-8 -33 -26 -14 -18 -17 -26 -7 -18 30 24 18 1 -25 -51 -48 -57 -138 -122 -199
-143 -56 -20 -62 -25 -49 -39 5 -8 8 -37 5 -69 -2 -31 -1 -56 4 -54 5 1 9 -2
9 -8 0 -5 -4 -9 -9 -8 -11 4 -60 -68 -53 -79 10 -15 118 -8 159 11 83 38 109
95 107 239 l-2 102 45 55 c29 37 42 61 38 72 -4 10 -2 14 4 10 6 -4 15 -1 21
6 8 9 38 10 114 6 56 -3 156 -5 221 -5 l117 2 -42 -20 c-84 -39 -199 -186
-198 -253 1 -10 9 6 20 36 39 109 132 195 248 231 93 29 99 23 10 -9 -139 -50
-210 -119 -248 -240 -22 -69 -28 -168 -9 -141 9 12 9 11 3 -5 -10 -26 -7 -68
7 -128 15 -64 22 -54 8 12 -14 68 -5 119 24 130 13 5 25 4 28 -1 4 -6 8 -5 11
3 2 7 10 -19 17 -57 7 -38 20 -98 30 -134 16 -59 21 -65 51 -73 37 -9 125 -66
116 -74 -10 -10 -110 -42 -117 -37 -4 2 -10 -4 -13 -13 -14 -35 30 -37 69 -2
44 39 91 50 181 43 97 -8 98 -7 60 72 -13 27 -27 60 -31 73 -14 46 -104 183
-145 221 -3 3 -14 16 -25 30 l-20 25 35 -26 c19 -14 55 -53 80 -87 25 -33 52
-60 60 -59 8 1 21 15 28 30 18 37 36 35 29 -3 -4 -16 -3 -32 2 -34 10 -7 57
42 48 50 -3 4 -1 16 4 27 6 11 10 56 9 101 -3 81 -3 93 -1 194 2 77 -5 95 -30
79 -17 -10 -22 -9 -35 7 -7 11 -16 17 -19 14 -3 -3 -9 -56 -14 -119 -9 -122
-22 -165 -66 -217 -36 -43 -43 -35 -11 13 24 35 25 39 10 66 -8 16 -19 29 -24
29 -5 0 -26 18 -46 39 -20 22 -54 52 -76 67 -22 16 -35 30 -29 32 6 2 11 10
11 17 0 12 21 25 40 25 5 0 7 -15 5 -34 -3 -32 0 -35 66 -70 l69 -37 -4 42
c-2 26 -11 48 -21 55 -16 12 -16 14 -2 20 9 3 21 3 27 -1 14 -9 13 18 -2 34
-8 8 -8 11 -2 8 7 -4 14 2 17 13 3 14 -1 20 -17 23 -11 2 2 6 29 10 28 4 77
12 110 18 33 6 131 13 217 16 173 6 178 5 202 -51 17 -38 174 -199 216 -221
30 -15 30 -16 30 -101 0 -78 2 -85 18 -79 9 4 24 9 33 12 9 3 16 16 16 33 0
15 7 36 17 45 15 15 25 16 79 6 34 -5 108 -15 165 -22 85 -9 102 -14 97 -27
-4 -12 -3 -12 9 -3 8 7 64 13 135 16 l121 4 0 -29 c0 -23 5 -30 20 -30 23 0
60 33 60 54 0 12 40 28 178 70 18 6 22 4 22 -16 0 -13 -5 -29 -12 -36 -9 -9
-8 -12 4 -12 21 0 39 23 41 52 1 14 17 38 35 55 28 26 45 32 102 37 38 4 82
11 99 16 24 7 36 4 62 -16 18 -13 38 -24 43 -24 19 0 11 198 -11 261 -16 48
-17 56 -4 51 11 -4 8 5 -8 31 -26 43 -22 63 15 77 20 8 32 7 50 -5 14 -9 25
-11 29 -5 3 6 4 10 0 10 -3 0 -1 9 5 20 10 19 7 20 -57 22 -50 1 -56 2 -23 5
68 5 90 12 90 28 0 8 8 19 18 24 12 8 -8 10 -75 11 l-91 0 -1 -102 c-1 -56 -3
-104 -6 -106 -3 -3 -5 27 -5 66 l0 71 -112 4 -113 3 113 2 112 2 0 30 c0 28
-1 29 -57 33 l-58 3 58 2 c56 2 57 2 57 31 l0 30 -115 3 -115 3 0 -149 c0 -82
-3 -146 -7 -142 -10 9 -10 12 -12 86 l-1 60 -105 0 -105 0 0 -82 c0 -86 -14
-101 -17 -17 -3 112 10 99 -103 99 l-99 0 -4 -82 -3 -83 -2 82 -2 82 -92 4
-93 3 93 2 92 2 0 30 0 30 -92 2 -93 2 90 5 90 6 3 33 3 32 -95 0 -96 0 0
-161 c0 -104 -3 -158 -10 -154 -6 4 -10 68 -10 161 l0 154 -87 0 -88 0 3 -160
c3 -111 1 -160 -7 -160 -8 0 -11 51 -11 160 l0 160 -85 0 -85 0 2 -155 c1 -85
-1 -157 -5 -161 -6 -7 -11 128 -7 203 1 32 1 32 -52 36 l-53 3 53 2 52 2 0 35
0 35 -80 0 -80 0 0 -167 c0 -91 -2 -164 -5 -161 -3 3 -6 78 -6 167 l-1 161
-74 0 -74 0 0 -167 c0 -91 -3 -164 -6 -160 -6 6 -8 38 -12 195 l-2 52 -60 0
c-37 0 -60 4 -60 11 0 7 21 10 60 7 l60 -3 0 33 0 32 -65 0 -65 0 0 -165 c0
-103 -4 -165 -10 -165 -6 0 -10 48 -10 125 l0 125 -66 0 -65 0 3 -32 c3 -32 4
-33 63 -39 l60 -6 -62 -1 -62 -2 -4 -87 -3 -88 -2 88 -2 87 -60 0 -60 0 0 -91
c0 -57 -4 -88 -10 -84 -6 4 -10 73 -10 173 l0 167 -55 0 -55 0 -1 -175 c-1
-122 -4 -161 -10 -130 -4 25 -8 66 -8 92 l-1 47 -47 4 -48 3 48 2 47 2 0 78 0
77 -50 0 -50 0 0 -173z"/>
<path d="M10450 4485 l0 -75 60 0 60 0 0 35 c0 33 -2 35 -32 35 -35 0 -34 8 3
13 19 3 25 11 27 35 l3 32 -60 0 -61 0 0 -75z"/>
<path d="M11792 4528 c3 -31 6 -33 48 -39 l45 -6 -47 -1 c-46 -2 -48 -3 -48
-32 l0 -30 100 0 100 0 0 29 c0 28 -2 30 -47 34 l-48 3 48 2 c47 2 47 2 47 37
l0 35 -101 0 -100 0 3 -32z"/>
<path d="M12010 4489 l0 -69 105 0 105 0 0 30 0 29 -102 4 -103 3 103 2 102 2
0 33 0 32 -105 2 -105 1 0 -69z"/>
<path d="M13021 4523 c2 -24 2 -25 6 -5 3 15 11 22 29 22 25 0 34 -24 12 -33
-7 -3 32 -6 87 -7 55 -1 108 -3 118 -5 12 -2 17 3 17 21 0 14 4 22 10 19 6 -3
10 -14 10 -23 0 -15 15 -17 142 -15 l143 2 3 25 3 26 -290 0 -291 0 1 -27z"/>
<path d="M9480 4470 c19 -4 29 -8 23 -9 -7 0 -13 -8 -13 -17 0 -9 -6 -14 -13
-11 -6 2 -18 -2 -25 -9 -11 -12 10 -14 133 -14 l145 0 0 30 c0 32 16 41 23 13
4 -17 5 -17 6 0 1 18 2 18 18 1 13 -13 14 -19 5 -22 -28 -9 -9 -22 33 -22 45
0 45 0 45 35 l0 35 -207 -1 c-118 -1 -193 -5 -173 -9z"/>
<path d="M13021 4458 l-1 -28 133 -1 c109 -2 122 -3 72 -9 -33 -4 -93 -8 -132
-9 -70 -1 -73 -2 -73 -25 0 -19 15 -36 65 -71 72 -52 99 -84 109 -131 7 -29 4
-33 -26 -44 -90 -35 -104 -40 -110 -40 -13 0 -89 72 -140 133 -26 32 -48 53
-48 48 0 -6 30 -46 68 -90 37 -44 76 -95 87 -113 11 -18 33 -39 48 -46 15 -7
27 -20 27 -28 0 -9 10 -14 28 -14 44 0 57 15 57 62 0 40 3 44 38 61 l38 18 41
-36 c42 -36 71 -43 98 -24 11 7 12 12 3 15 -7 3 -10 11 -7 19 3 8 -11 22 -36
36 -30 17 -40 28 -36 42 3 11 0 17 -7 14 -7 -2 -11 -12 -11 -21 1 -9 -4 -16
-12 -16 -8 0 -14 6 -14 14 0 8 -14 17 -31 21 -18 4 -34 16 -38 28 -12 31 12
36 217 44 l172 6 0 74 0 73 -136 -1 c-75 0 -138 2 -142 5 -3 3 58 6 136 6
l142 0 0 25 0 25 -145 0 -145 0 0 -100 c0 -60 -4 -100 -10 -100 -6 0 -10 40
-10 100 l0 100 -127 -1 c-71 -1 -120 -3 -110 -6 23 -6 22 -33 -2 -33 -12 0
-21 8 -24 23 -4 19 -4 18 -6 -5z"/>
<path d="M13640 4391 c0 -11 5 -23 10 -26 19 -12 314 -24 325 -14 14 13 38 11
63 -7 16 -11 51 -16 122 -18 54 -1 97 1 95 4 -5 8 -39 13 -225 36 -69 8 -179
21 -245 29 -151 18 -145 19 -145 -4z"/>
<path d="M9415 4390 c-32 -6 -24 -7 43 -9 l83 -1 -3 -27 -3 -28 90 0 89 0 7
32 c5 26 3 32 -15 37 -29 8 -242 5 -291 -4z"/>
<path d="M13645 4314 l1 -38 65 -16 c65 -17 113 -38 161 -71 16 -12 43 -19 71
-19 42 0 45 -2 49 -31 4 -25 1 -33 -14 -37 -25 -6 -24 -66 2 -92 28 -28 45
-25 22 5 -14 18 -18 32 -12 52 15 57 22 72 39 76 14 4 14 5 -1 6 -10 0 -18 5
-18 10 0 12 74 17 223 13 l126 -4 10 -30 c6 -17 10 -32 9 -33 -2 -1 -16 -7
-33 -12 -32 -10 -41 -30 -31 -68 8 -30 59 -52 89 -37 14 7 17 11 7 11 -12 1
-12 3 -2 9 18 12 24 54 9 65 -7 5 -3 6 11 2 31 -9 28 2 -7 19 -21 11 -28 22
-27 43 1 26 4 28 51 33 39 4 45 6 26 12 -19 5 -23 12 -19 32 6 29 1 31 -24 12
-20 -15 -73 -10 -88 9 -6 8 -12 23 -13 34 -1 21 -17 31 -17 11 0 -13 -60 -13
-80 0 -11 7 -7 10 20 11 50 2 19 8 -87 17 -93 8 -93 8 -93 -15 0 -13 -9 -32
-20 -43 -21 -21 -60 -27 -60 -10 0 5 -6 7 -14 4 -15 -6 -41 48 -33 69 4 11
-16 15 -96 20 -56 4 -125 10 -152 13 l-51 6 1 -38z"/>
<path d="M8880 4282 c0 -55 -33 -92 -83 -92 -45 0 -63 -37 -50 -101 5 -28 4
-68 -4 -114 -21 -120 -21 -121 35 -121 l47 1 3 -42 c2 -25 9 -43 18 -47 28
-11 100 27 212 112 50 37 55 38 77 15 13 -12 19 -13 24 -4 4 7 18 13 29 14 34
2 26 13 -20 27 -70 20 -150 66 -199 112 -25 24 -41 40 -35 36 16 -12 26 -9 26
6 0 18 20 32 29 20 3 -5 14 -15 23 -22 28 -23 10 28 -24 64 -16 17 -47 64 -68
105 l-39 74 -1 -43z"/>
<path d="M12739 4180 c-4 -44 0 -61 30 -123 39 -83 74 -118 115 -114 16 1 31
7 33 13 2 6 -16 33 -40 60 -24 27 -47 58 -51 69 -10 31 -85 113 -87 95z"/>
<path d="M9150 4078 c0 -5 0 -11 0 -15 0 -5 6 -8 13 -8 6 0 17 -5 24 -11 35
-33 224 -21 300 20 26 14 15 15 -155 18 -100 2 -182 0 -182 -4z"/>
<path d="M10718 3915 c-3 -6 -13 -39 -22 -75 -13 -53 -23 -72 -57 -103 -23
-20 -39 -40 -35 -44 3 -4 12 -1 18 5 7 7 16 12 20 12 12 0 10 -38 -3 -62 -9
-17 -8 -24 5 -33 23 -17 20 -41 -6 -60 -18 -12 -23 -25 -23 -60 0 -31 4 -45
13 -45 7 0 10 5 7 10 -3 6 1 17 10 26 9 9 14 23 11 31 -8 19 35 101 72 141 17
18 26 32 21 32 -22 0 -2 75 25 92 12 8 15 78 3 78 -4 0 -15 -16 -23 -35 -41
-100 -65 -148 -70 -143 -3 3 7 54 21 113 23 97 29 145 13 120z"/>
<path d="M11128 3912 c-10 -2 -33 -34 -53 -75 -39 -80 -41 -84 -20 -67 8 6 19
9 25 5 17 -10 11 -43 -15 -91 -32 -57 -32 -79 0 -80 19 -2 26 5 36 33 6 19 8
45 5 59 -4 13 -2 24 3 24 13 0 43 120 39 160 -2 27 -7 35 -20 32z"/>
<path d="M11962 3723 c-19 -13 -28 -14 -42 -5 -15 9 -27 2 -79 -48 -33 -32
-66 -60 -72 -62 -8 -3 -10 -11 -4 -24 4 -10 9 -23 10 -29 1 -5 3 -14 5 -20 10
-39 -37 -165 -62 -165 -5 0 -6 -5 -3 -10 4 -6 10 -8 15 -5 5 3 2 -12 -8 -33
-17 -38 -57 -86 -135 -163 -30 -29 -38 -44 -36 -66 4 -39 -5 -51 -54 -64 -75
-20 -136 -79 -66 -64 17 4 50 8 73 10 22 1 52 5 66 9 l25 8 -25 -21 c-23 -19
-23 -21 -5 -21 11 0 37 3 58 6 31 6 37 10 35 28 -2 17 7 24 50 40 36 13 51 23
48 33 -13 33 72 77 103 54 9 -6 31 -21 49 -33 23 -14 30 -23 21 -28 -6 -4 -9
-13 -5 -19 11 -17 -31 -51 -63 -51 -52 0 -77 -51 -51 -101 11 -20 40 -25 56
-10 11 12 121 16 150 7 14 -5 27 -2 37 8 8 9 20 16 26 16 10 0 17 41 11 65 -1
6 -2 23 -2 39 1 19 -3 25 -9 19 -13 -13 -106 24 -113 44 -3 8 9 16 37 23 23 6
53 16 66 23 l24 12 -6 140 c-5 130 -34 351 -58 438 -11 41 -29 47 -67 20z"/>
<path d="M11306 2773 c-8 -33 -26 -46 -26 -19 0 24 -21 30 -27 7 -6 -23 -19
-28 -26 -8 -2 6 -8 9 -13 4 -4 -4 -2 -35 5 -70 6 -34 15 -96 20 -137 4 -42 10
-81 14 -87 4 -6 21 -9 39 -8 18 2 45 3 60 4 54 2 131 100 92 115 -28 11 -15
44 26 67 47 27 76 74 59 95 -18 22 -160 14 -177 -8 -13 -17 -38 -26 -29 -10 3
4 2 25 -2 47 l-7 40 -8 -32z"/>
<path d="M11145 2695 c-16 -13 -36 -24 -42 -25 -23 0 -14 -30 21 -66 24 -25
32 -41 29 -58 -4 -19 1 -28 26 -40 28 -15 31 -15 39 1 5 10 8 23 6 28 -1 6 -8
42 -14 82 -6 39 -17 78 -23 87 -11 14 -15 13 -42 -9z"/>
<path d="M10592 2689 c-13 -5 -34 -6 -46 -3 -17 4 -32 -2 -51 -20 -35 -32 -25
-46 32 -46 32 0 44 -4 40 -12 -3 -10 9 -12 49 -10 35 3 54 0 54 -7 0 -6 9 -11
20 -11 20 0 21 4 24 67 1 19 -49 51 -79 52 -11 0 -30 -4 -43 -10z"/>
<path d="M11112 2480 c-23 -22 -71 -27 -89 -9 -7 7 -47 12 -95 13 l-83 1 -34
-37 c-36 -39 -61 -95 -61 -140 0 -17 -5 -28 -14 -28 -24 0 -38 -28 -41 -82 -2
-29 -5 -57 -6 -63 -1 -5 1 -21 6 -35 7 -21 5 -23 -6 -13 -21 17 -67 -22 -52
-45 14 -24 62 -28 77 -6 10 13 17 14 32 6 15 -8 25 -5 47 14 31 27 37 57 18
103 -10 23 -11 35 -3 43 12 12 15 8 27 -46 3 -16 14 -30 25 -33 12 -3 20 -14
20 -27 0 -11 4 -26 8 -32 18 -26 102 -41 102 -18 0 17 5 17 31 4 10 -6 19 -17
19 -25 0 -24 26 -17 53 14 13 16 42 40 65 55 66 41 67 47 58 216 -5 113 -12
137 -42 144 -19 5 -24 11 -19 26 8 26 -15 26 -43 0z"/>
<path d="M10217 2220 c-6 -57 5 -110 24 -110 5 0 17 9 28 21 l19 21 7 -21 c15
-48 55 -10 55 52 0 45 -57 97 -108 97 -16 0 -20 -10 -25 -60z"/>
<path d="M18355 1760 c-22 -4 -34 -8 -27 -9 15 -1 -2 -39 -26 -57 -19 -14 -24
-44 -9 -44 7 -1 -1 -7 -18 -14 -28 -12 -29 -13 -8 -20 24 -8 73 2 73 14 0 5
-7 10 -15 12 -9 2 3 13 30 27 40 21 49 22 70 11 20 -11 27 -11 40 0 17 14 20
56 4 66 -8 4 -7 9 2 15 11 7 10 9 -5 9 -14 0 -17 -6 -14 -25 7 -37 -8 -40 -21
-5 -5 17 -16 29 -23 29 -7 -1 -31 -5 -53 -9z"/>
<path d="M716 1678 c4 -34 2 -37 -23 -40 -16 -2 -27 -8 -26 -15 2 -7 -4 -10
-12 -7 -8 4 -15 1 -15 -5 0 -6 5 -11 10 -11 6 0 5 -8 -2 -20 -7 -11 -20 -20
-30 -20 -26 0 -33 -21 -9 -27 24 -6 26 -14 9 -31 -9 -9 -9 -12 1 -12 7 0 9 -4
6 -10 -4 -6 -13 -5 -25 2 -21 13 -50 -3 -50 -29 0 -10 -7 -13 -22 -9 -13 3
-18 3 -12 0 15 -7 5 -44 -11 -44 -27 0 -45 -31 -45 -78 0 -30 -3 -42 -9 -33
-11 17 -51 -2 -51 -25 0 -9 -6 -14 -12 -11 -7 2 -12 12 -12 21 1 9 -2 16 -7
16 -15 0 -20 -20 -9 -40 11 -20 -3 -30 -15 -10 -3 6 -13 10 -22 10 -14 0 -14
-3 1 -24 9 -14 12 -27 7 -31 -5 -3 -12 -1 -16 5 -10 17 -45 12 -39 -5 4 -9 0
-15 -10 -15 -9 0 -16 5 -16 10 0 6 -4 10 -8 10 -5 0 -7 -13 -4 -30 2 -16 2
-30 -2 -30 -3 0 -12 14 -21 30 -15 28 -45 42 -45 20 0 -5 -7 -7 -15 -4 -20 8
-31 -24 -16 -48 11 -18 10 -20 -16 -15 -15 2 -23 2 -18 0 14 -5 31 -45 27 -64
-1 -9 -14 -22 -28 -29 -18 -10 -21 -16 -12 -22 10 -6 10 -10 -2 -18 -13 -9
-13 -12 4 -25 22 -17 12 -36 -17 -31 -12 1 -16 1 -9 -1 19 -7 14 -23 -7 -23
-10 0 -18 -6 -18 -12 3 -34 -16 -89 -29 -84 -11 4 -13 -67 -14 -404 l0 -410
95 0 c78 0 95 3 95 15 0 8 -6 15 -12 16 -7 0 7 9 31 20 41 18 43 20 27 37 -20
23 -12 32 28 33 l31 0 -25 12 -25 11 28 4 c21 2 31 11 39 33 9 25 15 29 49 29
21 0 39 4 39 8 0 16 50 33 69 23 13 -7 22 -5 34 10 10 11 31 22 47 26 17 3 30
9 30 14 0 5 9 9 21 9 13 0 18 4 13 12 -5 7 -2 9 8 5 9 -3 24 1 35 8 10 8 27
15 38 15 11 0 29 14 40 30 16 24 25 29 43 25 14 -3 21 -2 18 4 -4 5 6 11 21
13 24 3 28 8 28 36 1 17 -3 32 -8 32 -5 0 -7 9 -4 19 3 11 -1 28 -9 39 -7 11
-10 22 -7 26 3 3 1 6 -5 6 -7 0 -12 15 -12 35 0 19 -5 35 -11 35 -8 0 -8 5 1
15 10 12 10 18 1 29 -9 11 -9 16 0 21 8 6 7 10 -2 16 -11 7 -12 12 -1 29 16
26 15 50 -2 50 -15 0 -32 37 -22 47 3 4 6 -1 6 -10 0 -9 5 -17 10 -17 6 0 10
14 10 31 0 16 4 28 9 25 17 -11 23 28 6 40 -15 11 -15 13 2 24 13 8 15 13 5
17 -10 4 -10 8 -1 20 10 11 9 20 -5 44 -10 17 -15 33 -12 36 3 4 6 0 6 -8 0
-11 2 -11 10 1 16 26 11 62 -12 83 -19 17 -20 19 -4 13 17 -6 18 -2 13 43 -6
47 -4 49 20 56 32 8 92 65 69 65 -9 0 -16 5 -16 10 0 6 7 10 15 10 8 0 15 5
15 10 0 6 -4 10 -9 10 -5 0 -7 8 -4 19 5 20 -22 37 -32 21 -8 -12 -25 -13 -25
-1 0 5 9 11 20 14 27 7 28 62 1 76 -10 6 -22 18 -25 27 -5 13 -4 14 7 6 10 -9
17 -8 25 0 9 9 12 6 12 -15 0 -15 5 -27 10 -27 6 0 10 8 10 19 0 10 7 24 15
31 9 7 15 29 15 51 0 29 4 39 16 39 13 0 13 2 -2 17 -13 13 -19 14 -22 5 -2
-6 -10 -12 -18 -12 -8 0 -14 -4 -14 -10 0 -5 -7 -7 -15 -3 -13 5 -13 8 5 20
17 12 19 18 9 29 -6 8 -17 14 -23 13 -7 0 -6 -2 2 -6 6 -2 12 -9 12 -15 0 -10
-51 -5 -86 9 -9 3 -14 -2 -14 -16 0 -12 5 -21 10 -21 6 0 10 5 10 10 0 6 9 10
20 10 13 0 20 -7 20 -18 0 -14 -12 -21 -47 -29 -26 -6 -51 -9 -55 -6 -14 8 3
24 21 18 14 -4 16 2 16 35 0 30 -3 39 -13 35 -8 -3 -22 5 -32 17 l-18 22 4
-36z"/>
<path d="M3229 1084 c-1 -5 -3 -16 -4 -24 -5 -42 -19 -80 -29 -80 -6 0 -21 -3
-33 -6 -14 -4 -23 -2 -23 5 0 6 14 11 30 11 25 0 30 4 30 25 0 25 -18 33 -35
16 -15 -15 -91 -29 -106 -20 -10 6 -7 10 10 17 39 14 6 25 -35 12 -25 -9 -38
-9 -48 -1 -7 6 -21 9 -30 5 -9 -3 -24 0 -33 7 -13 11 -17 11 -20 2 -3 -7 -14
-11 -26 -9 -12 1 -16 1 -9 -1 16 -6 15 -20 -2 -26 -8 -3 -17 2 -21 11 -5 14
-7 14 -15 2 -15 -23 -12 -30 10 -30 11 0 20 -5 20 -11 0 -6 -8 -8 -19 -4 -10
3 -24 -1 -31 -10 -8 -10 -9 -15 -1 -15 6 0 11 -7 11 -16 0 -13 -10 -15 -53
-12 -52 3 -53 2 -49 -22 3 -20 1 -22 -7 -10 -7 10 -13 11 -18 4 -11 -15 -53
-12 -53 4 0 22 -18 3 -25 -26 -6 -31 -57 -67 -81 -58 -8 3 -14 -1 -14 -9 0 -9
10 -15 23 -16 14 0 17 -2 7 -6 -8 -3 -20 -12 -27 -20 -6 -8 -28 -15 -47 -16
-37 -1 -52 -17 -16 -17 15 0 20 -7 20 -27 0 -23 -7 -31 -40 -45 -38 -16 -40
-18 -29 -42 12 -25 7 -57 -8 -55 -20 3 -23 -2 -8 -17 13 -13 14 -19 4 -25 -8
-4 -19 -3 -26 3 -10 8 -13 4 -13 -16 0 -24 -5 -27 -37 -26 -11 1 -22 -84 -12
-88 15 -6 10 -22 -7 -22 -9 0 -14 -6 -11 -12 2 -7 13 -12 23 -11 14 1 9 -7
-19 -30 -20 -18 -37 -39 -37 -48 0 -9 -7 -19 -15 -23 -8 -3 -14 -10 -13 -16 2
-7 -20 -21 -49 -33 -47 -20 -52 -25 -55 -57 -2 -28 -8 -36 -25 -38 -13 -2 -23
-8 -23 -13 0 -5 -13 -9 -28 -9 -16 0 -37 -7 -48 -15 -10 -8 -25 -15 -31 -15
-21 0 -15 17 7 23 23 6 28 47 5 47 -8 0 -26 -12 -40 -27 -20 -22 -25 -24 -25
-10 0 9 -7 17 -15 17 -8 0 -15 -7 -15 -15 0 -18 -4 -18 -53 -4 -39 11 -81 4
-72 -11 3 -5 -3 -15 -14 -21 -10 -7 -17 -18 -14 -24 7 -20 -28 -27 -48 -9 -16
14 -24 15 -68 3 -28 -7 -51 -16 -51 -21 0 -14 178 -10 183 5 4 9 6 9 6 0 1
-10 181 -13 865 -13 850 0 865 0 871 20 7 21 -10 60 -25 60 -6 0 -10 9 -10 19
0 11 -12 29 -27 40 -21 15 -24 20 -11 21 21 0 34 55 18 75 -10 12 -6 19 17 39
15 14 34 26 41 26 7 0 15 7 18 15 3 8 26 17 51 21 24 3 47 13 50 20 3 8 16 13
31 12 20 -2 25 2 27 19 1 13 -7 31 -17 40 -24 22 -50 82 -44 100 3 7 2 13 -3
13 -4 0 -8 17 -7 38 2 37 -18 82 -36 82 -5 0 -6 -9 -3 -20 4 -11 2 -20 -4 -20
-6 0 -11 5 -11 10 0 6 -8 10 -17 10 -16 1 -16 2 1 15 15 11 17 18 9 26 -7 7
-8 21 -2 43 7 25 6 34 -8 44 -9 6 -25 12 -34 12 -10 0 -21 5 -24 10 -3 6 1 10
9 10 9 0 16 7 16 15 0 8 -4 15 -10 15 -5 0 -10 -6 -10 -12 0 -9 -3 -9 -8 -3
-10 16 -62 17 -62 2 0 -7 -9 -18 -20 -25 -12 -7 -18 -17 -15 -22 3 -5 1 -11
-5 -15 -6 -4 -10 5 -10 20 0 24 -1 25 -16 11 -8 -9 -19 -16 -24 -16 -5 0 -15
-3 -24 -6 -20 -8 -21 10 -1 29 12 13 12 16 -8 21 -12 3 -33 6 -46 6 -20 0 -21
2 -11 15 7 8 21 15 31 15 11 0 19 5 19 10 0 6 -9 10 -20 10 -11 0 -20 5 -20
10 0 6 -9 10 -20 10 -22 0 -27 15 -7 24 8 3 7 9 -7 20 -23 19 -14 35 18 29 21
-4 23 -2 19 24 l-6 28 22 -22 c11 -12 21 -27 21 -33 0 -5 15 -10 34 -10 35 0
57 -15 34 -23 -7 -2 -10 -8 -6 -12 11 -11 28 4 28 26 0 13 -7 19 -22 20 -17 1
-19 2 -5 6 11 3 17 14 17 35 0 24 3 29 16 24 18 -7 47 11 39 24 -3 5 -21 6
-40 3 -28 -4 -35 -2 -35 10 0 18 -50 19 -62 2 -4 -5 -15 -1 -27 9 -12 11 -22
15 -22 10z"/>
<path d="M18684 685 c-23 -7 -75 -28 -115 -47 -41 -19 -87 -39 -103 -44 -35
-11 -44 -30 -19 -38 10 -3 6 -4 -9 -2 -15 2 -29 -2 -32 -8 -3 -7 -5 -7 -5 2
-1 16 -31 15 -74 -3 -20 -8 -50 -15 -67 -15 -20 0 -30 -5 -30 -15 0 -8 9 -15
20 -15 11 0 20 -5 20 -11 0 -6 -7 -9 -15 -6 -8 4 -17 2 -20 -3 -7 -11 18 -11
55 -1 14 4 39 4 55 -1 41 -12 252 48 260 73 3 10 23 23 43 30 20 7 53 21 73
31 30 16 41 17 62 7 15 -7 24 -17 20 -22 -4 -6 0 -8 11 -4 10 4 22 7 26 7 9 0
60 44 60 52 0 7 -44 3 -57 -5 -9 -6 -13 -2 -13 12 0 12 -4 21 -10 21 -5 0 -10
-6 -10 -14 0 -7 -10 -16 -22 -19 -28 -8 -33 -3 -14 15 11 12 12 18 3 27 -14
14 -40 13 -93 -4z"/>
</g>
</svg>
