<?xml version="1.0" standalone="no"?>
<!DOCTYPE svg PUBLIC "-//W3C//DTD SVG 20010904//EN"
 "http://www.w3.org/TR/2001/REC-SVG-20010904/DTD/svg10.dtd">
<svg version="1.0" xmlns="http://www.w3.org/2000/svg"
 width="512.000000pt" height="512.000000pt" viewBox="0 0 512.000000 512.000000"
 preserveAspectRatio="xMidYMid meet">
<metadata>
Created by potrace 1.13, written by Peter Selinger 2001-2015
</metadata>
<g transform="translate(0.000000,512.000000) scale(0.100000,-0.100000)"
fill="#000000" stroke="none">
<path d="M2255 5084 c-51 -6 -249 -42 -295 -54 -114 -30 -187 -52 -202 -61
-10 -5 -22 -9 -28 -9 -33 0 -303 -121 -427 -191 -574 -327 -1004 -872 -1182
-1499 -35 -122 -40 -140 -63 -260 -21 -105 -23 -142 -23 -440 0 -217 5 -345
13 -385 7 -33 18 -91 26 -130 24 -119 61 -245 104 -360 44 -117 89 -219 124
-283 17 -32 40 -73 50 -92 34 -62 74 -123 163 -250 138 -197 389 -438 615
-592 333 -226 646 -346 1100 -420 99 -16 541 -16 640 0 335 55 526 113 788
239 128 61 332 186 417 254 353 286 587 573 758 929 50 105 117 272 117 293 0
8 3 17 7 21 5 4 13 29 20 54 6 26 21 83 33 127 11 44 25 107 30 140 6 33 15
94 22 135 16 101 16 542 0 640 -28 170 -57 312 -71 350 -5 14 -20 59 -32 100
-98 331 -311 691 -572 966 -81 87 -274 259 -325 292 -15 9 -29 19 -32 22 -9
11 -204 137 -235 152 -16 8 -56 29 -87 46 -31 17 -101 49 -155 72 -54 23 -107
45 -118 49 -34 15 -106 38 -185 60 -41 12 -88 26 -105 31 -16 5 -59 14 -95 20
-36 7 -85 16 -110 21 -46 10 -611 20 -685 13z m555 -344 c25 -5 68 -12 95 -15
104 -12 405 -94 430 -116 5 -5 16 -9 23 -9 8 0 48 -16 88 -35 40 -19 75 -35
78 -35 2 0 61 -33 130 -74 404 -239 723 -598 900 -1011 21 -49 42 -99 47 -110
21 -49 68 -215 93 -330 54 -246 54 -624 0 -870 -31 -142 -80 -312 -96 -329 -4
-6 -8 -16 -8 -24 0 -32 -125 -281 -198 -392 -204 -313 -472 -563 -791 -738
-51 -29 -95 -52 -98 -52 -2 0 -38 -16 -79 -35 -41 -19 -80 -35 -87 -35 -7 0
-17 -4 -23 -8 -17 -15 -218 -73 -334 -96 -250 -51 -612 -54 -830 -6 -120 26
-266 64 -275 70 -5 4 -26 11 -45 15 -19 4 -41 11 -50 16 -8 4 -33 16 -55 25
-78 32 -263 124 -299 149 -20 14 -39 25 -42 25 -2 0 -28 16 -57 36 -341 238
-615 563 -765 909 -24 55 -47 107 -51 115 -14 27 -79 244 -95 315 -64 290 -64
660 0 950 20 88 82 289 100 324 8 14 14 30 14 34 0 15 93 200 144 287 174 297
460 583 757 758 97 56 293 152 312 152 7 0 17 4 23 9 24 23 310 100 454 122
160 25 485 30 590 9z"/>
<path d="M1833 3823 l-23 -4 0 -305 0 -304 -45 0 -45 0 0 290 0 290 -32 -7
c-60 -11 -58 -2 -58 -299 l0 -274 -40 0 -40 0 0 260 c0 216 -2 260 -14 260
-22 0 -124 -117 -155 -179 -43 -85 -52 -153 -49 -361 l3 -185 388 -3 388 -2
48 41 c59 51 136 94 216 123 84 29 305 30 380 2 90 -34 154 -69 215 -118 l60
-48 388 2 387 3 3 200 c3 168 0 210 -15 260 -40 138 -142 258 -263 312 -111
50 -81 48 -840 48 l-715 0 -3 -307 -2 -308 -40 0 -40 0 -2 307 c-3 332 0 317
-55 306z"/>
<path d="M2446 3044 c-180 -44 -324 -198 -362 -390 -14 -72 -15 -88 -1 -160
20 -104 58 -184 125 -256 98 -106 223 -160 366 -159 191 1 359 110 444 288 36
77 37 80 37 203 0 125 0 125 -39 205 -106 217 -336 326 -570 269z"/>
<path d="M1332 2328 l3 -613 33 -77 c65 -149 199 -261 354 -293 103 -22 1594
-22 1697 0 173 36 318 170 373 345 16 50 18 113 18 653 l0 597 -358 0 c-197 0
-361 -3 -365 -6 -3 -3 7 -27 23 -52 52 -86 80 -192 80 -307 0 -188 -52 -316
-182 -447 -60 -60 -95 -85 -160 -117 -83 -39 -206 -71 -278 -71 -48 0 -170 25
-230 47 -121 45 -256 164 -318 280 -60 113 -67 145 -67 303 0 156 11 205 71
307 13 23 24 46 24 52 0 8 -111 11 -360 11 l-361 0 3 -612z"/>
</g>
</svg>
