<?xml version="1.0" standalone="no"?>
<!DOCTYPE svg PUBLIC "-//W3C//DTD SVG 20010904//EN"
 "http://www.w3.org/TR/2001/REC-SVG-20010904/DTD/svg10.dtd">
<svg version="1.0" xmlns="http://www.w3.org/2000/svg"
 width="512.000000pt" height="512.000000pt" viewBox="0 0 512.000000 512.000000"
 preserveAspectRatio="xMidYMid meet">
<metadata>
Created by potrace 1.13, written by Peter Selinger 2001-2015
</metadata>
<g transform="translate(0.000000,512.000000) scale(0.100000,-0.100000)"
fill="#000000" stroke="none">
<path d="M2255 5084 c-51 -6 -249 -42 -295 -54 -114 -30 -187 -52 -202 -61
-10 -5 -22 -9 -28 -9 -33 0 -303 -121 -427 -191 -574 -327 -1004 -872 -1182
-1499 -35 -122 -40 -140 -63 -260 -21 -105 -23 -142 -23 -440 0 -217 5 -345
13 -385 7 -33 18 -91 26 -130 24 -119 61 -245 104 -360 44 -117 89 -219 124
-283 17 -32 40 -73 50 -92 34 -62 74 -123 163 -250 138 -197 389 -438 615
-592 333 -226 646 -346 1100 -420 99 -16 541 -16 640 0 335 55 526 113 788
239 128 61 332 186 417 254 353 286 587 573 758 929 50 105 117 272 117 293 0
8 3 17 7 21 5 4 13 29 20 54 6 26 21 83 33 127 11 44 25 107 30 140 6 33 15
94 22 135 16 101 16 542 0 640 -28 170 -57 312 -71 350 -5 14 -20 59 -32 100
-98 331 -311 691 -572 966 -81 87 -274 259 -325 292 -15 9 -29 19 -32 22 -9
11 -204 137 -235 152 -16 8 -56 29 -87 46 -31 17 -101 49 -155 72 -54 23 -107
45 -118 49 -34 15 -106 38 -185 60 -41 12 -88 26 -105 31 -16 5 -59 14 -95 20
-36 7 -85 16 -110 21 -46 10 -611 20 -685 13z m555 -344 c25 -5 68 -12 95 -15
104 -12 405 -94 430 -116 5 -5 16 -9 23 -9 8 0 48 -16 88 -35 40 -19 75 -35
78 -35 2 0 61 -33 130 -74 404 -239 723 -598 900 -1011 21 -49 42 -99 47 -110
21 -49 68 -215 93 -330 54 -246 54 -624 0 -870 -31 -142 -80 -312 -96 -329 -4
-6 -8 -16 -8 -24 0 -32 -125 -281 -198 -392 -204 -313 -472 -563 -791 -738
-51 -29 -95 -52 -98 -52 -2 0 -38 -16 -79 -35 -41 -19 -80 -35 -87 -35 -7 0
-17 -4 -23 -8 -17 -15 -218 -73 -334 -96 -250 -51 -612 -54 -830 -6 -120 26
-266 64 -275 70 -5 4 -26 11 -45 15 -19 4 -41 11 -50 16 -8 4 -33 16 -55 25
-78 32 -263 124 -299 149 -20 14 -39 25 -42 25 -2 0 -28 16 -57 36 -341 238
-615 563 -765 909 -24 55 -47 107 -51 115 -14 27 -79 244 -95 315 -64 290 -64
660 0 950 20 88 82 289 100 324 8 14 14 30 14 34 0 15 93 200 144 287 174 297
460 583 757 758 97 56 293 152 312 152 7 0 17 4 23 9 24 23 310 100 454 122
160 25 485 30 590 9z"/>
<path d="M1715 3948 c25 -85 40 -132 60 -193 13 -38 33 -104 45 -145 12 -41
34 -109 48 -150 25 -71 27 -90 32 -320 l5 -245 87 -3 87 -3 4 228 c2 178 6
239 19 278 40 122 168 550 168 562 0 10 -21 13 -87 13 l-88 0 -38 -163 c-22
-89 -45 -178 -52 -197 l-13 -35 -7 30 c-11 49 -74 287 -87 328 l-11 37 -89 0
c-88 0 -89 0 -83 -22z"/>
<path d="M2398 3688 c-48 -13 -111 -76 -126 -126 -18 -58 -15 -515 2 -565 29
-80 93 -119 197 -119 106 -1 168 37 210 130 17 39 19 67 19 278 0 231 0 236
-25 289 -49 103 -154 146 -277 113z m115 -162 c15 -12 17 -36 17 -244 0 -218
-1 -232 -19 -242 -31 -16 -59 -12 -75 12 -13 19 -16 59 -16 233 0 174 3 214
16 233 17 25 50 28 77 8z"/>
<path d="M2812 3314 l3 -376 33 -29 c44 -40 101 -40 164 0 25 16 49 35 54 43
6 9 10 2 14 -22 l5 -35 78 -3 77 -3 0 401 0 401 -77 -3 -78 -3 -3 -299 c-2
-209 -6 -304 -14 -313 -6 -8 -25 -21 -40 -29 -57 -30 -58 -26 -58 327 l0 319
-80 0 -81 0 3 -376z"/>
<path d="M1607 2709 c-82 -19 -172 -96 -223 -189 -18 -33 -19 -65 -22 -554
l-3 -519 30 -61 c47 -97 109 -153 206 -186 56 -19 84 -20 970 -20 863 0 915 1
968 19 104 34 170 92 216 191 l26 55 0 510 c0 507 0 510 -22 558 -32 67 -113
150 -176 178 l-52 24 -940 2 c-530 0 -957 -3 -978 -8z m483 -319 l0 -69 -82
-3 -83 -3 -2 -430 -2 -430 -70 -3 -71 -3 -2 433 -3 433 -77 3 -76 3 -4 65 c-1
36 -1 68 1 70 2 2 109 4 238 4 l233 0 0 -70z m670 -88 c0 -87 3 -162 7 -165 4
-4 19 4 34 19 32 30 81 43 128 33 85 -18 101 -78 101 -385 0 -253 -9 -306 -57
-344 -40 -31 -110 -27 -160 9 -42 31 -53 31 -53 -1 0 -15 -8 -18 -60 -18 l-60
0 0 505 0 505 60 0 60 0 0 -158z m672 -111 c88 -38 108 -86 108 -255 l0 -125
-127 -3 -128 -3 -3 -104 c-3 -124 8 -151 63 -151 46 0 65 29 65 97 l0 53 65 0
65 0 0 -60 c0 -135 -70 -210 -195 -210 -87 0 -138 30 -178 105 -21 38 -22 53
-22 280 0 227 1 242 22 280 28 52 60 81 108 99 55 20 106 19 157 -3z m-1212
-13 c0 -7 0 -137 0 -288 0 -292 4 -322 47 -328 13 -2 35 9 57 28 l36 32 0 284
0 284 65 0 65 0 0 -370 0 -370 -65 0 -65 0 0 35 c0 34 -12 46 -26 24 -3 -6
-27 -24 -52 -40 -48 -30 -106 -38 -142 -19 -36 19 -40 63 -40 406 l0 334 60 0
c41 0 60 -4 60 -12z"/>
<path d="M2782 2074 c-22 -15 -22 -18 -22 -254 l0 -240 25 -16 c32 -21 72 -21
93 0 15 15 17 46 17 250 0 216 -1 236 -19 255 -23 25 -63 27 -94 5z"/>
<path d="M3320 2083 c-30 -11 -40 -37 -40 -105 l0 -69 63 3 62 3 3 45 c5 70
-5 105 -34 118 -27 13 -31 13 -54 5z"/>
</g>
</svg>
